<?xml version="1.0" encoding="utf-8"?>
<!-- Generator: Adobe Illustrator 27.9.0, SVG Export Plug-In . SVG Version: 6.00 Build 0)  -->
<svg version="1.1" baseProfile="tiny" xmlns="http://www.w3.org/2000/svg" xmlns:xlink="http://www.w3.org/1999/xlink" x="0px"
	 y="0px" viewBox="0 0 500 500" overflow="visible" xml:space="preserve">
<g id="BACKGROUND">
</g>
<g id="OBJECTS">
	<g>
		<path d="M-244.09-174.47v-35h9.9v27.15h16.65v7.85H-244.09z"/>
		<path d="M-203.79-182.17h18.3v7.7h-28.05v-35h27.4v7.7h-17.65V-182.17z M-204.49-195.92h16.25v7.35h-16.25V-195.92z"/>
		<path d="M-179.94-174.47v-35h8.15l19.25,23.3h-3.85v-23.3h9.7v35h-8.15l-19.3-23.3h3.85v23.3H-179.94z"/>
		<path d="M-127.39-173.77c-2.9,0-5.67-0.36-8.32-1.08s-4.79-1.62-6.43-2.73l3.25-7.35c1.57,1,3.38,1.83,5.43,2.48
			c2.05,0.65,4.09,0.98,6.12,0.98c1.4,0,2.51-0.12,3.32-0.35c0.82-0.23,1.42-0.57,1.8-1c0.38-0.43,0.57-0.95,0.57-1.55
			c0-0.77-0.37-1.38-1.1-1.83c-0.73-0.45-1.69-0.83-2.88-1.15c-1.18-0.32-2.47-0.62-3.85-0.9c-1.38-0.28-2.79-0.66-4.23-1.12
			c-1.43-0.47-2.73-1.08-3.9-1.85c-1.17-0.77-2.11-1.77-2.83-3c-0.72-1.23-1.07-2.78-1.07-4.65c0-2.07,0.57-3.95,1.7-5.65
			c1.13-1.7,2.85-3.07,5.15-4.1c2.3-1.03,5.17-1.55,8.6-1.55c2.3,0,4.56,0.26,6.77,0.78c2.22,0.52,4.18,1.29,5.88,2.32l-3,7.3
			c-1.67-0.93-3.32-1.62-4.95-2.05c-1.63-0.43-3.22-0.65-4.75-0.65c-1.37,0-2.47,0.15-3.3,0.45c-0.83,0.3-1.43,0.68-1.8,1.15
			c-0.37,0.47-0.55,0.97-0.55,1.5c0,0.8,0.37,1.42,1.1,1.88c0.73,0.45,1.68,0.82,2.85,1.1c1.17,0.28,2.46,0.57,3.88,0.88
			c1.42,0.3,2.83,0.67,4.23,1.12c1.4,0.45,2.69,1.05,3.88,1.8c1.18,0.75,2.14,1.73,2.88,2.95c0.73,1.22,1.1,2.74,1.1,4.57
			c0,2.03-0.58,3.91-1.73,5.62c-1.15,1.72-2.88,3.09-5.17,4.12C-121.04-174.28-123.92-173.77-127.39-173.77z"/>
		<path d="M-244.09-114.47v-35h15.95c3.2,0,5.97,0.52,8.3,1.55c2.33,1.03,4.12,2.53,5.38,4.48c1.25,1.95,1.88,4.24,1.88,6.88
			c0,2.7-0.62,5.01-1.88,6.93c-1.25,1.92-3.04,3.4-5.38,4.45c-2.33,1.05-5.1,1.58-8.3,1.58h-10.5l4.45-4.35v13.5H-244.09z
			 M-234.19-126.82l-4.45-4.65h9.9c2.07,0,3.62-0.44,4.65-1.33c1.03-0.88,1.55-2.14,1.55-3.77c0-1.57-0.52-2.81-1.55-3.73
			c-1.03-0.92-2.58-1.38-4.65-1.38h-9.9l4.45-4.55V-126.82z"/>
		<path d="M-207.74-114.47v-35h15.95c3.2,0,5.97,0.52,8.3,1.55c2.33,1.03,4.12,2.53,5.38,4.48c1.25,1.95,1.88,4.24,1.88,6.88
			c0,2.7-0.62,5-1.88,6.9c-1.25,1.9-3.04,3.36-5.38,4.38c-2.33,1.02-5.1,1.53-8.3,1.53h-10.5l4.45-4.2v13.5H-207.74z
			 M-197.84-126.82l-4.45-4.6h9.9c2.07,0,3.62-0.45,4.65-1.35c1.03-0.9,1.55-2.17,1.55-3.8c0-1.57-0.52-2.81-1.55-3.73
			c-1.03-0.92-2.58-1.38-4.65-1.38h-9.9l4.45-4.55V-126.82z M-186.14-114.47l-8.7-12.75h10.55l8.75,12.75H-186.14z"/>
		<path d="M-153.14-113.77c-2.77,0-5.34-0.45-7.73-1.35c-2.38-0.9-4.44-2.18-6.17-3.83c-1.73-1.65-3.09-3.58-4.08-5.8
			c-0.98-2.22-1.47-4.64-1.47-7.27c0-2.6,0.49-5,1.47-7.2c0.98-2.2,2.34-4.12,4.08-5.77c1.73-1.65,3.78-2.93,6.15-3.83
			c2.37-0.9,4.95-1.35,7.75-1.35c2.8,0,5.38,0.45,7.75,1.35c2.37,0.9,4.42,2.17,6.15,3.8c1.73,1.63,3.09,3.55,4.08,5.75
			c0.98,2.2,1.48,4.62,1.48,7.25c0,2.67-0.48,5.11-1.45,7.32c-0.97,2.22-2.32,4.14-4.07,5.77c-1.75,1.63-3.81,2.9-6.18,3.8
			C-147.76-114.22-150.34-113.77-153.14-113.77z M-153.14-121.97c1.33,0,2.58-0.23,3.73-0.7c1.15-0.47,2.15-1.14,3-2.02
			c0.85-0.88,1.52-1.93,2-3.15c0.48-1.22,0.73-2.59,0.73-4.12c0-1.53-0.24-2.91-0.73-4.12c-0.48-1.22-1.15-2.27-2-3.15
			c-0.85-0.88-1.85-1.56-3-2.02s-2.39-0.7-3.73-0.7c-1.33,0-2.57,0.23-3.73,0.7c-1.15,0.47-2.16,1.14-3.02,2.02
			c-0.87,0.88-1.53,1.93-2,3.15c-0.47,1.22-0.7,2.59-0.7,4.12c0,1.53,0.23,2.91,0.7,4.12c0.47,1.22,1.13,2.27,2,3.15
			c0.87,0.88,1.88,1.56,3.02,2.02C-155.71-122.2-154.47-121.97-153.14-121.97z"/>
		<path d="M-128.44-114.47v-35h16.55c3.83,0,7.22,0.72,10.15,2.15c2.93,1.43,5.22,3.45,6.88,6.05c1.65,2.6,2.47,5.68,2.47,9.25
			c0,3.6-0.82,6.71-2.47,9.32c-1.65,2.62-3.94,4.64-6.88,6.08c-2.93,1.43-6.32,2.15-10.15,2.15H-128.44z M-118.54-122.37h6.15
			c2.03,0,3.79-0.38,5.27-1.15c1.48-0.77,2.64-1.88,3.47-3.33s1.25-3.16,1.25-5.12c0-2.03-0.42-3.76-1.25-5.17
			c-0.83-1.42-1.99-2.51-3.47-3.28c-1.48-0.77-3.24-1.15-5.27-1.15h-6.15V-122.37z"/>
		<path d="M-71.04-113.77c-5.17,0-9.19-1.42-12.08-4.25c-2.88-2.83-4.33-6.83-4.33-12v-19.45h9.9v19.15c0,2.97,0.58,5.1,1.75,6.4
			c1.17,1.3,2.78,1.95,4.85,1.95c2.07,0,3.67-0.65,4.83-1.95c1.15-1.3,1.72-3.43,1.72-6.4v-19.15h9.8v19.45
			c0,5.17-1.46,9.17-4.38,12C-61.88-115.18-65.91-113.77-71.04-113.77z"/>
		<path d="M-30.44-113.77c-2.77,0-5.32-0.44-7.65-1.33s-4.37-2.13-6.1-3.75c-1.73-1.62-3.08-3.54-4.05-5.77
			c-0.97-2.23-1.45-4.68-1.45-7.35c0-2.67,0.48-5.12,1.45-7.35c0.97-2.23,2.32-4.16,4.05-5.77c1.73-1.62,3.77-2.87,6.1-3.75
			c2.33-0.88,4.88-1.33,7.65-1.33c3.23,0,6.12,0.56,8.67,1.68c2.55,1.12,4.67,2.76,6.38,4.92l-6.3,5.7
			c-1.13-1.33-2.38-2.35-3.75-3.05c-1.37-0.7-2.87-1.05-4.5-1.05c-1.43,0-2.75,0.23-3.95,0.7s-2.22,1.14-3.08,2.02
			c-0.85,0.88-1.52,1.94-2,3.17c-0.48,1.23-0.72,2.6-0.72,4.1s0.24,2.87,0.72,4.1c0.48,1.23,1.15,2.29,2,3.17
			c0.85,0.88,1.88,1.56,3.08,2.02c1.2,0.47,2.52,0.7,3.95,0.7c1.63,0,3.13-0.35,4.5-1.05c1.37-0.7,2.62-1.73,3.75-3.1l6.3,5.7
			c-1.7,2.17-3.83,3.82-6.38,4.95S-27.21-113.77-30.44-113.77z"/>
		<path d="M-3.84-114.47v-27.15h-10.75v-7.85h31.35v7.85H6.06v27.15H-3.84z"/>
		<path d="M20.51-114.47v-35h9.9v35H20.51z"/>
		<path d="M79.76-114.47v-35h8.15l19.25,23.3h-3.85v-23.3h9.7v35h-8.15l-19.3-23.3h3.85v23.3H79.76z"/>
	</g>
	<path d="M-785.86-141.3v-28.89h9.9v27.15h16.65v7.85h-20.51L-785.86-141.3z"/>
	<path d="M-745.56-142.89h18.3v7.7h-28.05v-29.09l4.15-5.91h23.25v7.7h-17.65V-142.89z M-744.26-156.64h16.25v7.35h-16.25V-156.64z"
		/>
	<path d="M-721.71-135.19v-35h8.15l19.25,23.3h-3.85v-23.3h9.7v32.56v2.44h-2.7h-5.45l-19.3-23.3h3.85v23.3H-721.71z"/>
	<path d="M-669.16-134.49c-2.9,0-5.67-0.36-8.32-1.08s-4.79-1.62-6.43-2.73l2.52-5.7c0,0,2-0.89,2.69-0.55
		c1.07,0.52,2.22,0.98,3.46,1.38c2.05,0.65,4.09,0.98,6.12,0.98c1.4,0,2.51-0.12,3.32-0.35c0.82-0.23,1.42-0.57,1.8-1
		c0.38-0.43,0.57-0.95,0.57-1.55c0-0.77-0.37-1.38-1.1-1.83c-0.73-0.45-1.69-0.83-2.88-1.15c-1.18-0.32-2.47-0.62-3.85-0.9
		c-1.38-0.28-2.79-0.66-4.23-1.12c-1.43-0.47-2.73-1.08-3.9-1.85c-1.17-0.77-2.11-1.77-2.83-3c-0.72-1.23-1.07-2.78-1.07-4.65
		c0-2.07,0.57-3.95,1.7-5.65c1.13-1.7,2.85-3.07,5.15-4.1c2.3-1.03,5.17-1.55,8.6-1.55c2.3,0,4.56,0.26,6.77,0.78
		c2.22,0.52,4.18,1.29,5.88,2.32l-2.23,5.42c0,0-2.04,1.21-2.67,0.92c-1.02-0.46-2.04-0.83-3.05-1.09
		c-1.63-0.43-3.22-0.65-4.75-0.65c-1.37,0-2.47,0.15-3.3,0.45c-0.83,0.3-1.43,0.68-1.8,1.15c-0.37,0.47-0.55,0.97-0.55,1.5
		c0,0.8,0.37,1.42,1.1,1.88c0.73,0.45,1.68,0.82,2.85,1.1c1.17,0.28,2.46,0.57,3.88,0.88c1.42,0.3,2.83,0.67,4.23,1.12
		c1.4,0.45,2.69,1.05,3.88,1.8c1.18,0.75,2.14,1.73,2.88,2.95c0.73,1.22,1.1,2.74,1.1,4.57c0,2.03-0.58,3.91-1.73,5.62
		c-1.15,1.72-2.88,3.09-5.17,4.12C-662.81-135.01-665.69-134.49-669.16-134.49z"/>
	<path d="M-785.86-75.19v-35h15.95c3.2,0,5.97,0.52,8.3,1.55c2.33,1.03,4.12,2.53,5.38,4.48c1.25,1.95,1.88,4.24,1.88,6.88
		c0,2.7-0.62,5.01-1.88,6.93c-1.25,1.92-3.04,3.4-5.38,4.45c-2.33,1.05-5.1,1.58-8.3,1.58h-10.5l4.45-4.35v13.5H-785.86z
		 M-775.96-87.54l-4.45-4.65h9.9c2.07,0,3.62-0.44,4.65-1.33c1.03-0.88,1.55-2.14,1.55-3.77c0-1.57-0.52-2.81-1.55-3.73
		c-1.03-0.92-2.58-1.38-4.65-1.38h-9.9l4.45-4.55V-87.54z"/>
	<path d="M-749.51-75.19v-35h15.95c3.2,0,5.97,0.52,8.3,1.55c2.33,1.03,4.12,2.53,5.38,4.48c1.25,1.95,1.88,4.24,1.88,6.88
		c0,2.7-0.62,5-1.88,6.9c-1.25,1.9-3.04,3.36-5.38,4.38c-2.33,1.02-5.1,1.53-8.3,1.53h-10.5l4.45-4.2v13.5H-749.51z M-739.61-87.54
		l-4.45-4.6h9.9c2.07,0,3.62-0.45,4.65-1.35c1.03-0.9,1.55-2.17,1.55-3.8c0-1.57-0.52-2.81-1.55-3.73
		c-1.03-0.92-2.58-1.38-4.65-1.38h-9.9l4.45-4.55V-87.54z M-727.91-75.19l-8.7-12.75h10.55l8.75,12.75H-727.91z"/>
	<path d="M-694.91-74.49c-2.77,0-5.34-0.45-7.73-1.35c-2.38-0.9-4.44-2.18-6.17-3.83c-1.73-1.65-3.09-3.58-4.08-5.8
		c-0.98-2.22-1.47-4.64-1.47-7.27c0-2.6,0.49-5,1.47-7.2c0.98-2.2,2.34-4.12,4.08-5.77c1.73-1.65,3.78-2.93,6.15-3.83
		c2.37-0.9,4.95-1.35,7.75-1.35c2.8,0,5.38,0.45,7.75,1.35c2.37,0.9,4.42,2.17,6.15,3.8c1.73,1.63,3.09,3.55,4.08,5.75
		c0.98,2.2,1.48,4.62,1.48,7.25c0,2.67-0.48,5.11-1.45,7.32c-0.97,2.22-2.32,4.14-4.07,5.77c-1.75,1.63-3.81,2.9-6.18,3.8
		C-689.53-74.94-692.11-74.49-694.91-74.49z M-694.91-82.69c1.33,0,2.58-0.23,3.73-0.7c1.15-0.47,2.15-1.14,3-2.02
		c0.85-0.88,1.52-1.93,2-3.15c0.48-1.22,0.73-2.59,0.73-4.12c0-1.53-0.24-2.91-0.73-4.12c-0.48-1.22-1.15-2.27-2-3.15
		c-0.85-0.88-1.85-1.56-3-2.02s-2.39-0.7-3.73-0.7c-1.33,0-2.57,0.23-3.73,0.7c-1.15,0.47-2.16,1.14-3.02,2.02
		c-0.87,0.88-1.53,1.93-2,3.15c-0.47,1.22-0.7,2.59-0.7,4.12c0,1.53,0.23,2.91,0.7,4.12c0.47,1.22,1.13,2.27,2,3.15
		c0.87,0.88,1.88,1.56,3.02,2.02C-697.48-82.92-696.24-82.69-694.91-82.69z"/>
	<path d="M-670.21-75.19v-35h16.55c3.83,0,7.22,0.72,10.15,2.15c2.93,1.43,5.22,3.45,6.88,6.05c1.65,2.6,2.47,5.68,2.47,9.25
		c0,3.6-0.82,6.71-2.47,9.32c-1.65,2.62-3.94,4.64-6.88,6.08c-2.93,1.43-6.32,2.15-10.15,2.15H-670.21z M-660.31-83.09h6.15
		c2.03,0,3.79-0.38,5.27-1.15c1.48-0.77,2.64-1.88,3.47-3.33s1.25-3.16,1.25-5.12c0-2.03-0.42-3.76-1.25-5.17
		c-0.83-1.42-1.99-2.51-3.47-3.28c-1.48-0.77-3.24-1.15-5.27-1.15h-6.15V-83.09z"/>
	<path d="M-612.81-74.49c-5.17,0-9.19-1.42-12.08-4.25c-2.88-2.83-4.33-6.83-4.33-12v-19.45h9.9v19.15c0,2.97,0.58,5.1,1.75,6.4
		c1.17,1.3,2.78,1.95,4.85,1.95c2.07,0,3.67-0.65,4.83-1.95c1.15-1.3,1.72-3.43,1.72-6.4v-19.15h9.8v19.45c0,5.17-1.46,9.17-4.38,12
		C-603.65-75.91-607.68-74.49-612.81-74.49z"/>
	<path d="M-572.21-74.49c-2.77,0-5.32-0.44-7.65-1.33s-4.37-2.13-6.1-3.75c-1.73-1.62-3.08-3.54-4.05-5.77
		c-0.97-2.23-1.45-4.68-1.45-7.35c0-2.67,0.48-5.12,1.45-7.35c0.97-2.23,2.32-4.16,4.05-5.77c1.73-1.62,3.77-2.87,6.1-3.75
		c2.33-0.88,4.88-1.33,7.65-1.33c3.23,0,6.12,0.56,8.67,1.68c2.55,1.12,4.67,2.76,6.38,4.92l-6.3,5.7
		c-1.13-1.33-2.38-2.35-3.75-3.05c-1.37-0.7-2.87-1.05-4.5-1.05c-1.43,0-2.75,0.23-3.95,0.7s-2.22,1.14-3.08,2.02
		c-0.85,0.88-1.52,1.94-2,3.17c-0.48,1.23-0.72,2.6-0.72,4.1s0.24,2.87,0.72,4.1c0.48,1.23,1.15,2.29,2,3.17
		c0.85,0.88,1.88,1.56,3.08,2.02c1.2,0.47,2.52,0.7,3.95,0.7c1.63,0,3.13-0.35,4.5-1.05c1.37-0.7,2.62-1.73,3.75-3.1l6.3,5.7
		c-1.7,2.17-3.83,3.82-6.38,4.95S-568.98-74.49-572.21-74.49z"/>
	<path d="M-545.61-75.19v-27.15h-10.75v-7.85h31.35v7.85h-10.7v27.15H-545.61z"/>
	<path d="M-521.26-75.19v-35h9.9v35H-521.26z"/>
	<path d="M-462.01-75.19v-35h8.15l19.25,23.3h-3.85v-23.3h9.7v35h-8.15l-19.3-23.3h3.85v23.3H-462.01z"/>
	<g>
		<path d="M121.64-114.13c-0.58,0-1.12-0.08-1.64-0.25c-0.52-0.16-0.92-0.37-1.21-0.62l0.43-0.75c0.28,0.21,0.65,0.4,1.09,0.55
			c0.44,0.16,0.91,0.23,1.4,0.23c0.67,0,1.15-0.1,1.44-0.31c0.29-0.21,0.44-0.49,0.44-0.83c0-0.26-0.08-0.46-0.25-0.61
			c-0.16-0.15-0.38-0.26-0.65-0.33c-0.27-0.08-0.56-0.14-0.89-0.19c-0.33-0.05-0.65-0.12-0.98-0.19c-0.32-0.07-0.62-0.18-0.89-0.31
			c-0.27-0.14-0.48-0.33-0.65-0.57c-0.16-0.24-0.25-0.56-0.25-0.96c0-0.38,0.11-0.72,0.32-1.03c0.21-0.3,0.53-0.54,0.94-0.71
			c0.41-0.17,0.92-0.26,1.51-0.26c0.45,0,0.91,0.06,1.36,0.18s0.83,0.28,1.12,0.47l-0.41,0.76c-0.31-0.21-0.64-0.37-1-0.46
			c-0.36-0.09-0.71-0.14-1.07-0.14c-0.63,0-1.1,0.11-1.39,0.33c-0.3,0.22-0.45,0.5-0.45,0.83c0,0.27,0.08,0.48,0.25,0.63
			c0.16,0.15,0.38,0.27,0.65,0.35c0.27,0.08,0.57,0.15,0.89,0.21s0.65,0.12,0.97,0.19c0.32,0.08,0.62,0.18,0.89,0.31
			c0.27,0.13,0.49,0.31,0.65,0.55c0.16,0.24,0.25,0.54,0.25,0.93c0,0.41-0.11,0.76-0.34,1.06c-0.23,0.3-0.56,0.53-0.99,0.69
			C122.77-114.21,122.25-114.13,121.64-114.13z"/>
		<path d="M126.35-114.13c-0.2,0-0.36-0.07-0.5-0.21c-0.14-0.14-0.21-0.32-0.21-0.52c0-0.21,0.07-0.39,0.21-0.52
			c0.14-0.13,0.3-0.2,0.5-0.2c0.2,0,0.36,0.07,0.5,0.2c0.14,0.13,0.21,0.31,0.21,0.52c0,0.2-0.07,0.38-0.21,0.52
			C126.72-114.2,126.55-114.13,126.35-114.13z"/>
		<path d="M131.19-114.13c-0.52,0-0.98-0.09-1.37-0.26c-0.39-0.17-0.68-0.41-0.89-0.72c-0.2-0.31-0.31-0.66-0.31-1.06
			c0-0.36,0.09-0.69,0.26-0.99c0.17-0.3,0.46-0.54,0.85-0.72c0.4-0.18,0.93-0.27,1.59-0.27h2.41v0.71h-2.38
			c-0.68,0-1.14,0.12-1.41,0.36c-0.26,0.24-0.39,0.54-0.39,0.89c0,0.4,0.16,0.72,0.47,0.96c0.31,0.24,0.75,0.36,1.31,0.36
			c0.53,0,0.99-0.12,1.38-0.37c0.39-0.24,0.67-0.6,0.85-1.06l0.21,0.65c-0.18,0.46-0.49,0.83-0.93,1.11
			C132.41-114.26,131.86-114.13,131.19-114.13z M133.6-114.19v-1.55l-0.04-0.25v-2.58c0-0.59-0.17-1.05-0.5-1.37
			c-0.33-0.32-0.83-0.48-1.49-0.48c-0.45,0-0.88,0.08-1.29,0.23c-0.41,0.15-0.75,0.35-1.04,0.6l-0.43-0.71
			c0.35-0.3,0.78-0.53,1.28-0.7c0.5-0.16,1.02-0.25,1.57-0.25c0.91,0,1.61,0.22,2.1,0.67c0.49,0.45,0.74,1.13,0.74,2.04v4.34H133.6z
			"/>
		<path d="M137.17-114.13c-0.2,0-0.36-0.07-0.5-0.21c-0.14-0.14-0.21-0.32-0.21-0.52c0-0.21,0.07-0.39,0.21-0.52s0.3-0.2,0.5-0.2
			c0.2,0,0.36,0.07,0.5,0.2c0.14,0.13,0.21,0.31,0.21,0.52c0,0.2-0.07,0.38-0.21,0.52C137.53-114.2,137.37-114.13,137.17-114.13z"/>
		<path d="M139.9-114.19v-6.99h0.91v1.9l-0.09-0.33c0.2-0.53,0.52-0.94,0.99-1.22c0.46-0.28,1.03-0.42,1.72-0.42v0.92
			c-0.04,0-0.07,0-0.11-0.01c-0.04,0-0.07-0.01-0.11-0.01c-0.74,0-1.31,0.22-1.73,0.67c-0.42,0.45-0.63,1.09-0.63,1.91v3.57H139.9z"
			/>
		<path d="M145.2-114.13c-0.2,0-0.36-0.07-0.5-0.21c-0.14-0.14-0.21-0.32-0.21-0.52c0-0.21,0.07-0.39,0.21-0.52
			c0.14-0.13,0.3-0.2,0.5-0.2c0.2,0,0.36,0.07,0.5,0.2c0.14,0.13,0.21,0.31,0.21,0.52c0,0.2-0.07,0.38-0.21,0.52
			C145.56-114.2,145.4-114.13,145.2-114.13z"/>
		<path d="M147.93-114.19v-9.88h0.95v9.88H147.93z"/>
	</g>
	<g>
		<path d="M63.71-130.37l-3.11,5.31h10.41c1.02-1.83,1.59-4.55,1.59-7.14c0-3.3-0.92-6.33-2.52-8.96l-6.33,10.83L63.71-130.37z"/>
		<path d="M52.11-140.64h6.76l-5.07-8.79c-5.88,0.49-10.93,3.6-13.68,8.79h10.33H52.11z"/>
		<path d="M49.53-125.46l-3.32-5.77l-5.22,9.04c3.13,4.5,8.35,7.45,14.25,7.45c0.12,0,0.25-0.01,0.37-0.01l-6.14-10.68L49.53-125.46
			z"/>
		<path d="M58.9-124.14h-7.07l5.22,9.08c5.99-0.5,11.12-4.19,13.84-9.08H60.4H58.9z"/>
		<path d="M60.04-140.64l4.28,7.47l5.16-8.84c-3.14-4.5-8.34-7.44-14.24-7.44c-0.12,0-0.24-0.02-0.37-0.01l5.11,8.82H60.04z"/>
		<path d="M45.64-132.13l4.25-7.29H39.6c-1.1,1.83-1.72,4.73-1.72,7.43c0,3.29,0.92,6.32,2.51,8.95l5.26-9.08L45.64-132.13z"/>
	</g>
	<g>
		<path d="M-501.13-285.8l-3.1,5.29h10.38c1.01-1.83,1.58-4.53,1.58-7.11c0-3.29-0.92-6.31-2.51-8.93l-6.31,10.8L-501.13-285.8z"/>
		<path d="M-512.7-296.03h6.74l-5.06-8.76c-5.86,0.48-10.89,3.59-13.64,8.76h10.29H-512.7z"/>
		<path d="M-515.27-280.9l-3.31-5.76l-5.2,9.01c3.12,4.49,8.32,7.43,14.2,7.43c0.12,0,0.25-0.01,0.37-0.01l-6.12-10.64
			L-515.27-280.9z"/>
		<path d="M-505.93-279.58h-7.04l5.21,9.05c5.97-0.5,11.09-4.18,13.79-9.05h-10.45H-505.93z"/>
		<path d="M-504.79-296.03l4.26,7.45l5.14-8.82c-3.13-4.48-8.31-7.41-14.19-7.41c-0.12,0-0.24-0.02-0.37-0.01l5.09,8.79H-504.79z"/>
		<path d="M-519.15-287.55l4.23-7.26h-10.25c-1.1,1.83-1.71,4.72-1.71,7.41c0,3.28,0.91,6.3,2.5,8.92l5.24-9.05L-519.15-287.55z"/>
	</g>
	<path d="M-777.95-351.2v-45.82h2.33v45.92h28.14v2.13h-28.51L-777.95-351.2z"/>
	<path d="M-735.67-351.1h30.13v2.13H-738v-45.41l2.07-2.64h29.44v2.13h-29.17V-351.1z M-732.81-374.44h26.5v2.13h-26.5V-374.44z"/>
	<path d="M-692.15-348.97v-48.05h1.92l35.28,45.3h-1.17v-45.3h2.33v46.73v1.32h-0.94h-0.98l-35.28-45.3h1.17v45.3H-692.15z"/>
	<path d="M-624.06-348.7c-3.52,0-6.85-0.63-9.99-1.89c-3.13-1.26-5.53-2.85-7.17-4.77l1.24-1.65c1.55,1.74,3.76,3.22,6.62,4.43
		c2.86,1.21,5.94,1.82,9.23,1.82c3.34,0,6.09-0.46,8.24-1.37c2.15-0.92,3.74-2.14,4.77-3.67c1.03-1.53,1.54-3.24,1.54-5.11
		c0-2.2-0.55-3.96-1.65-5.29c-1.1-1.33-2.55-2.38-4.36-3.16c-1.81-0.78-3.78-1.42-5.91-1.92c-2.13-0.5-4.28-1.04-6.45-1.61
		c-2.17-0.57-4.17-1.3-5.97-2.2c-1.81-0.89-3.25-2.13-4.33-3.71c-1.08-1.58-1.61-3.63-1.61-6.14c0-2.15,0.57-4.16,1.72-6.04
		c1.14-1.88,2.93-3.4,5.35-4.56c2.43-1.17,5.53-1.75,9.34-1.75c2.61,0,5.18,0.4,7.72,1.2c2.54,0.8,4.7,1.87,6.49,3.19l-1.03,1.85
		c-1.92-1.42-4.05-2.47-6.38-3.16c-2.33-0.69-4.57-1.03-6.73-1.03c-3.2,0-5.87,0.47-8,1.41c-2.13,0.94-3.7,2.19-4.7,3.74
		c-1.01,1.56-1.51,3.27-1.51,5.15c0,2.24,0.55,4.03,1.65,5.35c1.1,1.33,2.55,2.38,4.36,3.16c1.81,0.78,3.79,1.42,5.94,1.92
		c2.15,0.5,4.3,1.04,6.45,1.61c2.15,0.57,4.13,1.32,5.94,2.23c1.81,0.92,3.25,2.14,4.33,3.67c1.07,1.53,1.61,3.54,1.61,6.01
		c0,2.15-0.58,4.16-1.75,6.04c-1.17,1.88-3,3.39-5.49,4.53C-617.05-349.27-620.21-348.7-624.06-348.7z"/>
	<path d="M-891.45-266.63v-48.05h16.68c3.98,0,7.4,0.64,10.26,1.92c2.86,1.28,5.04,3.1,6.55,5.46s2.26,5.21,2.26,8.54
		c0,3.34-0.75,6.2-2.26,8.58c-1.51,2.38-3.7,4.21-6.55,5.49c-2.86,1.28-6.28,1.92-10.26,1.92h-15.38l1.03-1.1v17.23H-891.45z
		 M-889.12-283.86l-1.03-1.03h15.51c5.4,0,9.53-1.21,12.39-3.64c2.86-2.42,4.29-5.83,4.29-10.23c0-4.39-1.43-7.79-4.29-10.19
		c-2.86-2.4-6.99-3.6-12.39-3.6h-15.51l1.03-1.1V-283.86z"/>
	<path d="M-843.26-266.63v-48.05h16.68c3.98,0,7.4,0.64,10.26,1.92c2.86,1.28,5.04,3.1,6.55,5.46s2.26,5.21,2.26,8.54
		c0,3.34-0.75,6.2-2.26,8.58c-1.51,2.38-3.7,4.21-6.55,5.49c-2.86,1.28-6.28,1.92-10.26,1.92h-15.38l1.03-1.1v17.23H-843.26z
		 M-840.93-283.86l-1.03-1.03h15.51c5.4,0,9.53-1.21,12.39-3.64c2.86-2.42,4.29-5.83,4.29-10.23c0-4.39-1.43-7.79-4.29-10.19
		c-2.86-2.4-6.99-3.6-12.39-3.6h-15.51l1.03-1.1V-283.86z M-809.49-266.63l-12.49-17.43h2.68l12.56,17.43H-809.49z"/>
	<path d="M-774.07-266.35c-3.52,0-6.79-0.61-9.82-1.82c-3.02-1.21-5.65-2.92-7.89-5.11c-2.24-2.2-3.98-4.77-5.22-7.72
		c-1.24-2.95-1.85-6.17-1.85-9.64c0-3.48,0.62-6.69,1.85-9.64c1.24-2.95,2.97-5.53,5.22-7.72c2.24-2.2,4.87-3.9,7.89-5.11
		c3.02-1.21,6.32-1.82,9.88-1.82c3.52,0,6.8,0.61,9.82,1.82c3.02,1.21,5.64,2.92,7.86,5.11c2.22,2.2,3.96,4.76,5.22,7.69
		c1.26,2.93,1.89,6.16,1.89,9.68c0,3.48-0.63,6.69-1.89,9.64c-1.26,2.95-3,5.53-5.22,7.72c-2.22,2.2-4.84,3.9-7.86,5.11
		C-767.21-266.96-770.5-266.35-774.07-266.35z M-774.07-268.48c3.2,0,6.18-0.55,8.92-1.65c2.75-1.1,5.14-2.65,7.17-4.67
		c2.03-2.01,3.61-4.36,4.74-7.04c1.12-2.68,1.68-5.62,1.68-8.82c0-3.2-0.56-6.14-1.68-8.82c-1.12-2.68-2.7-5.02-4.74-7.04
		c-2.04-2.01-4.43-3.57-7.17-4.67c-2.75-1.1-5.72-1.65-8.92-1.65c-3.16,0-6.11,0.55-8.85,1.65c-2.75,1.1-5.14,2.65-7.17,4.67
		c-2.04,2.01-3.61,4.37-4.74,7.07c-1.12,2.7-1.68,5.63-1.68,8.79c0,3.2,0.56,6.14,1.68,8.82c1.12,2.68,2.7,5.02,4.74,7.04
		c2.03,2.01,4.43,3.57,7.17,4.67C-780.18-269.03-777.23-268.48-774.07-268.48z"/>
	<path d="M-509.61-263.22c-3.52,0-6.79-0.61-9.82-1.82c-3.02-1.21-5.65-2.92-7.89-5.11c-2.24-2.2-3.98-4.77-5.22-7.72
		c-1.24-2.95-1.85-6.17-1.85-9.64c0-3.48,0.62-6.69,1.85-9.64c1.24-2.95,2.97-5.53,5.22-7.72c2.24-2.2,4.87-3.9,7.89-5.11
		c3.02-1.21,6.32-1.82,9.88-1.82c3.52,0,6.8,0.61,9.82,1.82c3.02,1.21,5.64,2.92,7.86,5.11c2.22,2.2,3.96,4.76,5.22,7.69
		c1.26,2.93,1.89,6.16,1.89,9.68c0,3.48-0.63,6.69-1.89,9.64c-1.26,2.95-3,5.53-5.22,7.72c-2.22,2.2-4.84,3.9-7.86,5.11
		C-502.74-263.83-506.04-263.22-509.61-263.22z M-509.61-265.35c3.2,0,6.18-0.55,8.92-1.65c2.75-1.1,5.14-2.65,7.17-4.67
		c2.03-2.01,3.61-4.36,4.74-7.04c1.12-2.68,1.68-5.62,1.68-8.82c0-3.2-0.56-6.14-1.68-8.82c-1.12-2.68-2.7-5.02-4.74-7.04
		c-2.04-2.01-4.43-3.57-7.17-4.67c-2.75-1.1-5.72-1.65-8.92-1.65c-3.16,0-6.11,0.55-8.85,1.65c-2.75,1.1-5.14,2.65-7.17,4.67
		c-2.04,2.01-3.61,4.37-4.74,7.07c-1.12,2.7-1.68,5.63-1.68,8.79c0,3.2,0.56,6.14,1.68,8.82c1.12,2.68,2.7,5.02,4.74,7.04
		c2.03,2.01,4.43,3.57,7.17,4.67C-515.72-265.9-512.77-265.35-509.61-265.35z"/>
	<g>
		<g>
			<path d="M356.85,271.8l-39.3,66.95h131.35c12.82-23.12,20.02-57.37,20.02-90.02c0-41.64-11.62-79.86-31.81-112.99l-79.83,136.67
				L356.85,271.8z"/>
			<path d="M210.47,142.24h85.29l-64.03-110.9c-74.2,6.14-137.89,45.4-172.6,110.9h130.29H210.47z"/>
			<path d="M177.96,333.79l-41.87-72.85L70.23,375.03c39.55,56.81,105.3,94.04,179.77,94.04c1.57,0,3.12-0.08,4.68-0.12
				l-77.53-134.69L177.96,333.79z"/>
			<path d="M296.12,350.5h-89.14l65.9,114.5c75.63-6.28,140.35-52.85,174.57-114.5H315.14H296.12z"/>
			<path d="M310.58,142.24l53.97,94.27l65.11-111.59C390.1,68.2,324.41,31.12,250,31.12c-1.55,0-3.08-0.21-4.62-0.18l64.43,111.3
				H310.58z"/>
			<path d="M128.86,249.61l53.58-91.96H52.73c-13.87,23.12-21.65,59.7-21.65,93.76c0,41.56,11.57,79.76,31.68,112.86l66.33-114.57
				L128.86,249.61z"/>
		</g>
	</g>
	<path d="M-736.53-266.63v-48.05h18.53c5.12,0,9.59,1.04,13.39,3.12c3.8,2.08,6.76,4.92,8.89,8.51c2.13,3.59,3.19,7.72,3.19,12.39
		c0,4.67-1.06,8.8-3.19,12.39c-2.13,3.59-5.09,6.43-8.89,8.51c-3.8,2.08-8.26,3.12-13.39,3.12H-736.53z M-734.19-268.76h16.06
		c4.71,0,8.82-0.94,12.32-2.82c3.5-1.88,6.2-4.46,8.1-7.75c1.9-3.3,2.85-7.07,2.85-11.33c0-4.25-0.95-8.03-2.85-11.33
		c-1.9-3.3-4.6-5.88-8.1-7.76c-3.5-1.88-7.61-2.81-12.32-2.81h-16.06V-268.76z"/>
	<path d="M-661.37-266.35c-5.86,0-10.47-1.72-13.83-5.15c-3.36-3.43-5.04-8.56-5.04-15.37v-27.8h2.33v27.73
		c0,6.22,1.44,10.86,4.33,13.9c2.88,3.04,6.96,4.56,12.22,4.56c5.27,0,9.34-1.52,12.22-4.56c2.89-3.04,4.33-7.68,4.33-13.9v-27.73
		h2.26v27.8c0,6.82-1.68,11.94-5.04,15.37C-650.97-268.07-655.55-266.35-661.37-266.35z"/>
	<path d="M-605.49-266.35c-3.52,0-6.8-0.61-9.82-1.82c-3.02-1.21-5.65-2.92-7.89-5.11c-2.24-2.2-3.98-4.77-5.22-7.72
		c-1.24-2.95-1.85-6.17-1.85-9.64c0-3.48,0.62-6.69,1.85-9.64c1.24-2.95,2.97-5.53,5.22-7.72c2.24-2.2,4.87-3.9,7.89-5.11
		c3.02-1.21,6.29-1.82,9.82-1.82c3.25,0,6.31,0.53,9.2,1.58c2.88,1.05,5.38,2.65,7.48,4.8l-1.44,1.51c-2.15-2.06-4.5-3.54-7.04-4.43
		c-2.54-0.89-5.25-1.34-8.13-1.34c-3.2,0-6.18,0.56-8.92,1.68c-2.75,1.12-5.14,2.69-7.18,4.7c-2.04,2.01-3.61,4.36-4.73,7.04
		c-1.12,2.68-1.68,5.59-1.68,8.75c0,3.16,0.56,6.07,1.68,8.75c1.12,2.68,2.7,5.02,4.73,7.04c2.04,2.01,4.43,3.58,7.18,4.7
		c2.75,1.12,5.72,1.68,8.92,1.68c2.88,0,5.6-0.45,8.13-1.34c2.54-0.89,4.89-2.39,7.04-4.5l1.44,1.51c-2.1,2.15-4.6,3.76-7.48,4.84
		C-599.18-266.89-602.24-266.35-605.49-266.35z"/>
	<path d="M-547.68-266.63v-42.98h1.78v42.98H-547.68z"/>
	<path d="M-565.85-266.63v-69.54h1.78v69.54H-565.85z"/>
	<path d="M-478.2-266.63v-42.98h1.72l31.56,40.52h-1.04v-40.52h2.09v42.98h-1.72l-31.56-40.52h1.04v40.52H-478.2z"/>
	<g>
		<path d="M-528.66-318.5h-49.09v-1.78h49.09V-318.5z"/>
		<path d="M-440.94-316.72h-49.09v-1.78h49.09V-316.72z"/>
		<path d="M-488.67-328.5h-40.86v-1.78h40.86V-328.5z"/>
		<path d="M-529.55-318.5v-11.78h1.36v11.78H-529.55z"/>
		<path d="M-490.03-317.61l0-11.78h1.36v11.78H-490.03z"/>
	</g>
	<g>
		<path d="M-497.98-116.53h-23.28v-1.25h23.28V-116.53z"/>
		<path d="M-428.76-115.28h-42.04v-1.25h42.04V-115.28z"/>
		<path d="M-469.84-123.57h-28.76v-1.25h28.76V-123.57z"/>
		<path d="M-498.61-116.53v-8.29h0.96l0,8.29H-498.61z"/>
		<path d="M-470.8-115.9v-8.29h0.96v8.29H-470.8z"/>
	</g>
	<polyline points="-689.7,-392.62 -692.15,-397.02 -689.82,-390.88 	"/>
	<g>
		<path d="M-458.38-118.3c-0.46,0-0.9-0.07-1.31-0.2c-0.41-0.13-0.73-0.3-0.97-0.49l0.34-0.6c0.23,0.17,0.52,0.32,0.87,0.44
			c0.35,0.12,0.73,0.19,1.12,0.19c0.53,0,0.91-0.08,1.15-0.25c0.23-0.17,0.35-0.39,0.35-0.66c0-0.21-0.07-0.37-0.2-0.48
			c-0.13-0.12-0.3-0.21-0.52-0.27c-0.21-0.06-0.45-0.11-0.71-0.15c-0.26-0.04-0.52-0.09-0.78-0.15c-0.26-0.06-0.49-0.14-0.71-0.25
			c-0.21-0.11-0.38-0.26-0.52-0.45c-0.13-0.19-0.2-0.45-0.2-0.77c0-0.3,0.09-0.58,0.26-0.82c0.17-0.24,0.42-0.43,0.75-0.57
			c0.33-0.14,0.73-0.21,1.21-0.21c0.36,0,0.72,0.05,1.08,0.14c0.36,0.1,0.66,0.22,0.89,0.38l-0.33,0.61
			c-0.25-0.17-0.51-0.29-0.8-0.37c-0.28-0.07-0.57-0.11-0.85-0.11c-0.5,0-0.87,0.09-1.11,0.26c-0.24,0.17-0.36,0.4-0.36,0.66
			c0,0.21,0.07,0.38,0.2,0.5c0.13,0.12,0.3,0.21,0.52,0.28c0.22,0.07,0.45,0.12,0.71,0.16c0.26,0.04,0.52,0.09,0.78,0.15
			c0.26,0.06,0.5,0.14,0.71,0.24c0.22,0.1,0.39,0.25,0.52,0.44c0.13,0.19,0.2,0.43,0.2,0.74c0,0.33-0.09,0.61-0.27,0.84
			c-0.18,0.24-0.44,0.42-0.79,0.55C-457.48-118.37-457.89-118.3-458.38-118.3z"/>
		<path d="M-454.62-118.3c-0.16,0-0.29-0.06-0.4-0.17c-0.11-0.11-0.16-0.25-0.16-0.41c0-0.17,0.05-0.31,0.16-0.41
			c0.11-0.11,0.24-0.16,0.4-0.16c0.16,0,0.29,0.05,0.4,0.16c0.11,0.11,0.16,0.24,0.16,0.41c0,0.16-0.05,0.3-0.16,0.41
			C-454.33-118.36-454.46-118.3-454.62-118.3z"/>
		<path d="M-450.76-118.3c-0.42,0-0.78-0.07-1.09-0.21c-0.31-0.14-0.54-0.33-0.71-0.57c-0.16-0.24-0.24-0.53-0.24-0.84
			c0-0.29,0.07-0.55,0.21-0.79c0.14-0.24,0.36-0.43,0.68-0.57c0.32-0.15,0.74-0.22,1.27-0.22h1.92v0.56h-1.9
			c-0.54,0-0.91,0.1-1.12,0.29s-0.31,0.43-0.31,0.71c0,0.32,0.12,0.57,0.37,0.77c0.25,0.19,0.6,0.29,1.04,0.29
			c0.43,0,0.79-0.1,1.1-0.29c0.31-0.19,0.53-0.48,0.67-0.84l0.17,0.52c-0.14,0.37-0.39,0.66-0.74,0.88
			C-449.79-118.41-450.23-118.3-450.76-118.3z M-448.84-118.36v-1.23l-0.03-0.2v-2.06c0-0.47-0.13-0.84-0.4-1.09
			c-0.27-0.26-0.66-0.38-1.19-0.38c-0.36,0-0.71,0.06-1.03,0.18c-0.33,0.12-0.6,0.28-0.83,0.48l-0.34-0.56
			c0.28-0.24,0.62-0.43,1.02-0.56c0.4-0.13,0.82-0.2,1.25-0.2c0.72,0,1.28,0.18,1.67,0.54c0.39,0.36,0.59,0.9,0.59,1.63v3.46
			H-448.84z"/>
		<path d="M-445.99-118.3c-0.16,0-0.29-0.06-0.4-0.17c-0.11-0.11-0.16-0.25-0.16-0.41c0-0.17,0.05-0.31,0.16-0.41
			c0.11-0.11,0.24-0.16,0.4-0.16c0.16,0,0.29,0.05,0.4,0.16c0.11,0.11,0.16,0.24,0.16,0.41c0,0.16-0.05,0.3-0.16,0.41
			C-445.7-118.36-445.83-118.3-445.99-118.3z"/>
		<path d="M-443.81-118.36v-5.58h0.72v1.52l-0.07-0.27c0.16-0.43,0.42-0.75,0.79-0.97c0.37-0.22,0.83-0.33,1.37-0.33v0.73
			c-0.03,0-0.06,0-0.08-0.01c-0.03,0-0.06-0.01-0.09-0.01c-0.59,0-1.05,0.18-1.38,0.54c-0.33,0.36-0.5,0.87-0.5,1.53v2.85H-443.81z"
			/>
		<path d="M-439.58-118.3c-0.16,0-0.29-0.06-0.4-0.17c-0.11-0.11-0.16-0.25-0.16-0.41c0-0.17,0.05-0.31,0.16-0.41
			c0.11-0.11,0.24-0.16,0.4-0.16c0.16,0,0.29,0.05,0.4,0.16c0.11,0.11,0.16,0.24,0.16,0.41c0,0.16-0.05,0.3-0.16,0.41
			C-439.29-118.36-439.43-118.3-439.58-118.3z"/>
		<path d="M-437.4-118.36v-7.89h0.75v7.89H-437.4z"/>
	</g>
</g>
<g id="DESIGNED_BY_FREEPIK">
</g>
</svg>
