<svg version="1.2" xmlns="http://www.w3.org/2000/svg" viewBox="0 0 500 500" width="500" height="500">
	<title>logo</title>
	<style>
		.s0 { fill: #000000 } 
	</style>
	<g id="BACKGROUND">
	</g>
	<g id="OBJECTS">
		<g id="&lt;Group&gt;">
			<path id="&lt;Compound Path&gt;" class="s0" d="m-244.1-174.5v-35h9.9v27.2h16.7v7.8z"/>
			<path id="&lt;Compound Path&gt;" class="s0" d="m-203.8-182.2h18.3v7.7h-28v-35h27.4v7.7h-17.7zm-0.7-13.7h16.3v7.3h-16.3z"/>
			<path id="&lt;Compound Path&gt;" class="s0" d="m-179.9-174.5v-35h8.1l19.3 23.3h-3.9v-23.3h9.7v35h-8.1l-19.3-23.3h3.8v23.3z"/>
			<path id="&lt;Compound Path&gt;" class="s0" d="m-127.4-173.8q-4.3 0-8.3-1-4-1.1-6.4-2.8l3.2-7.3q2.4 1.5 5.4 2.5 3.1 0.9 6.2 0.9 2.1 0 3.3-0.3 1.2-0.4 1.8-1 0.6-0.7 0.6-1.6 0-1.1-1.1-1.8-1.1-0.7-2.9-1.1-1.8-0.5-3.9-0.9-2-0.5-4.2-1.2-2.1-0.7-3.9-1.8-1.7-1.2-2.8-3-1.1-1.9-1.1-4.7 0-3.1 1.7-5.6 1.7-2.6 5.2-4.1 3.4-1.6 8.6-1.6 3.4 0 6.7 0.8 3.4 0.8 5.9 2.3l-3 7.3q-2.5-1.4-4.9-2-2.5-0.7-4.8-0.7-2 0-3.3 0.5-1.2 0.4-1.8 1.1-0.5 0.7-0.5 1.5 0 1.2 1.1 1.9 1.1 0.7 2.8 1.1 1.8 0.4 3.9 0.9 2.1 0.4 4.2 1.1 2.1 0.7 3.9 1.8 1.8 1.1 2.9 3 1.1 1.8 1.1 4.5 0 3.1-1.8 5.7-1.7 2.5-5.1 4.1-3.5 1.5-8.7 1.5z"/>
			<path id="&lt;Compound Path&gt;" class="s0" d="m-244.1-114.5v-35h16q4.8 0 8.3 1.6 3.5 1.5 5.3 4.5 1.9 2.9 1.9 6.8 0 4.1-1.9 7-1.8 2.8-5.3 4.4-3.5 1.6-8.3 1.6h-10.5l4.4-4.4v13.5zm9.9-12.3l-4.4-4.7h9.9q3.1 0 4.6-1.3 1.6-1.3 1.6-3.8 0-2.3-1.6-3.7-1.5-1.4-4.6-1.4h-9.9l4.4-4.5z"/>
			<path id="&lt;Compound Path&gt;" class="s0" d="m-207.7-114.5v-35h15.9q4.8 0 8.3 1.6 3.5 1.5 5.4 4.5 1.9 2.9 1.9 6.8 0 4.1-1.9 6.9-1.9 2.9-5.4 4.4-3.5 1.5-8.3 1.5h-10.5l4.5-4.2v13.5zm9.9-12.3l-4.5-4.6h9.9q3.1 0 4.7-1.4 1.5-1.3 1.5-3.8 0-2.3-1.5-3.7-1.6-1.4-4.7-1.4h-9.9l4.5-4.5zm11.7 12.3l-8.7-12.7h10.5l8.8 12.7z"/>
			<path id="&lt;Compound Path&gt;" class="s0" d="m-153.1-113.8q-4.2 0-7.8-1.3-3.5-1.4-6.1-3.8-2.6-2.5-4.1-5.8-1.5-3.4-1.5-7.3 0-3.9 1.5-7.2 1.5-3.3 4.1-5.8 2.6-2.5 6.1-3.8 3.6-1.4 7.8-1.4 4.2 0 7.7 1.4 3.6 1.3 6.2 3.8 2.6 2.4 4 5.7 1.5 3.3 1.5 7.3 0 4-1.4 7.3-1.5 3.3-4.1 5.8-2.6 2.4-6.2 3.8-3.5 1.3-7.7 1.3zm0-8.2q2 0 3.7-0.7 1.7-0.7 3-2 1.3-1.3 2-3.1 0.7-1.9 0.7-4.2 0-2.3-0.7-4.1-0.7-1.8-2-3.1-1.3-1.4-3-2.1-1.7-0.7-3.7-0.7-2 0-3.8 0.7-1.7 0.7-3 2.1-1.3 1.3-2 3.1-0.7 1.8-0.7 4.1 0 2.3 0.7 4.2 0.7 1.8 2 3.1 1.3 1.3 3 2 1.8 0.7 3.8 0.7z"/>
			<path id="&lt;Compound Path&gt;" class="s0" d="m-128.4-114.5v-35h16.5q5.8 0 10.2 2.2 4.4 2.1 6.8 6 2.5 3.9 2.5 9.3 0 5.4-2.5 9.3-2.4 3.9-6.8 6.1-4.4 2.1-10.2 2.1zm9.9-7.9h6.2q3 0 5.2-1.1 2.3-1.2 3.5-3.3 1.3-2.2 1.3-5.2 0-3-1.3-5.1-1.2-2.2-3.5-3.3-2.2-1.2-5.2-1.2h-6.2z"/>
			<path id="&lt;Compound Path&gt;" class="s0" d="m-71-113.8q-7.8 0-12.1-4.2-4.3-4.3-4.3-12v-19.5h9.9v19.2q0 4.4 1.7 6.4 1.8 1.9 4.9 1.9 3.1 0 4.8-1.9 1.7-2 1.7-6.4v-19.2h9.8v19.5q0 7.7-4.4 12-4.3 4.2-12 4.2z"/>
			<path id="&lt;Compound Path&gt;" class="s0" d="m-30.4-113.8q-4.2 0-7.7-1.3-3.5-1.3-6.1-3.7-2.6-2.5-4-5.8-1.5-3.4-1.5-7.4 0-4 1.5-7.3 1.4-3.4 4-5.8 2.6-2.4 6.1-3.7 3.5-1.4 7.7-1.4 4.8 0 8.6 1.7 3.9 1.7 6.4 4.9l-6.3 5.7q-1.7-2-3.7-3-2.1-1.1-4.5-1.1-2.2 0-4 0.7-1.8 0.7-3.1 2.1-1.2 1.3-2 3.1-0.7 1.9-0.7 4.1 0 2.3 0.7 4.1 0.8 1.9 2 3.2 1.3 1.3 3.1 2 1.8 0.7 4 0.7 2.4 0 4.5-1 2-1.1 3.7-3.1l6.3 5.7q-2.5 3.2-6.4 4.9-3.8 1.7-8.6 1.7z"/>
			<path id="&lt;Compound Path&gt;" class="s0" d="m-3.8-114.5v-27.1h-10.8v-7.9h31.4v7.9h-10.7v27.1z"/>
			<path id="&lt;Compound Path&gt;" class="s0" d="m20.5-114.5v-35h9.9v35z"/>
			<path id="&lt;Compound Path&gt;" class="s0" d="m79.8-114.5v-35h8.1l19.3 23.3h-3.9v-23.3h9.7v35h-8.1l-19.3-23.3h3.8v23.3z"/>
		</g>
		<path id="&lt;Compound Path&gt;" class="s0" d="m28.4 76.6v-36.6h12.5v34.4h21v9.9h-25.9z"/>
		<path id="&lt;Compound Path&gt;" class="s0" d="m79.3 74.6h23.2v9.7h-35.5v-36.8l5.2-7.5h29.4v9.8h-22.3zm22.2-17.4v9.3h-20.5v-9.3z"/>
		<path id="&lt;Compound Path&gt;" class="s0" d="m109.5 84.3v-44.3h10.3l24.3 29.5h-4.8v-29.5h12.2v41.2 3.1h-3.4-6.9l-24.4-29.5h4.9v29.5z"/>
		<path id="&lt;Compound Path&gt;" class="s0" d="m159.6 573.6v-35h9.9v35z"/>
		<path id="&lt;Compound Path&gt;" class="s0" d="m197.5 573.6v-35h9.9v35z"/>
		<path id="&lt;Compound Path&gt;" class="s0" d="m184.3 573.6q-11.2-14.3-22.5-28.6l7.6-6.4q12.7 17.5 25.5 35-5.3 0-10.6 0z"/>
		<path id="&lt;Compound Path&gt;" class="s0" d="m175.9 85.2q-5.5 0-10.5-1.4-5-1.3-8.1-3.4l3.2-7.2c0 0 2.5-1.2 3.4-0.7q2 1 4.4 1.7 3.8 1.2 7.7 1.2 2.7 0 4.2-0.4 1.6-0.4 2.3-1.3 0.7-0.8 0.7-1.9 0-1.5-1.4-2.3-1.4-0.9-3.6-1.5-2.3-0.6-4.9-1.1-2.6-0.6-5.3-1.4-2.8-0.9-5-2.4-2.2-1.4-3.5-3.8-1.4-2.3-1.4-5.9 0-3.9 2.2-7.1 2.1-3.2 6.5-5.2 4.3-1.9 10.8-1.9 4.4 0 8.6 0.9 4.2 1 7.4 3l-2.8 6.8c0 0-2.6 1.6-3.4 1.2q-1.9-0.9-3.8-1.4-3.1-0.8-6-0.8-2.6 0-4.2 0.6-1.6 0.5-2.3 1.4-0.7 0.9-0.7 1.9 0 1.5 1.4 2.4 1.4 0.8 3.6 1.4 2.2 0.5 4.9 1.1 2.7 0.5 5.4 1.4 2.6 0.9 4.9 2.3 2.2 1.4 3.6 3.7 1.4 2.3 1.4 5.8 0 3.9-2.2 7.1-2.2 3.3-6.5 5.2-4.4 2-11 2z"/>
		<path id="&lt;Compound Path&gt;" class="s0" d="m28.4 160.2v-44.3h20.1q6.1 0 10.5 2 4.5 1.9 6.8 5.6 2.4 3.7 2.4 8.7 0 5.1-2.4 8.8-2.3 3.6-6.8 5.6-4.4 2-10.5 2h-13.2l5.6-5.5v17.1zm12.5-15.6l-5.6-5.9h12.5q3.9 0 5.9-1.7 1.9-1.7 1.9-4.8 0-2.9-1.9-4.7-2-1.7-5.9-1.7h-12.5l5.6-5.8z"/>
		<path id="&lt;Compound Path&gt;" class="s0" d="m74.3 160.2v-44.3h20.2q6.1 0 10.5 2 4.4 1.9 6.8 5.6 2.4 3.7 2.4 8.7 0 5.1-2.4 8.7-2.4 3.7-6.8 5.6-4.4 1.9-10.5 1.9h-13.3l5.6-5.3v17.1zm12.6-15.6l-5.7-5.9h12.6q3.9 0 5.8-1.7 2-1.7 2-4.8 0-2.9-2-4.7-1.9-1.7-5.8-1.7h-12.6l5.7-5.8zm14.8 15.6l-11-16.1h13.3l11.1 16.1z"/>
		<path id="&lt;Compound Path&gt;" class="s0" d="m143.4 161.1q-5.3 0-9.8-1.8-4.5-1.7-7.8-4.8-3.3-3.1-5.2-7.3-1.8-4.2-1.8-9.2 0-5 1.8-9.1 1.9-4.2 5.2-7.3 3.3-3.2 7.8-4.9 4.5-1.7 9.8-1.7 5.3 0 9.8 1.7 4.5 1.7 7.7 4.8 3.3 3.1 5.2 7.3 1.9 4.2 1.9 9.2 0 5-1.9 9.2-1.8 4.2-5.1 7.3-3.3 3.1-7.8 4.8-4.5 1.8-9.8 1.8zm0-10.4q2.5 0 4.7-0.9 2.2-0.9 3.8-2.6 1.6-1.6 2.5-3.9 0.9-2.3 0.9-5.3 0-2.9-0.9-5.2-0.9-2.3-2.5-4-1.6-1.6-3.8-2.5-2.2-0.9-4.7-0.9-2.6 0-4.7 0.9-2.2 0.9-3.9 2.5-1.6 1.7-2.5 4-0.9 2.3-0.9 5.2 0 3 0.9 5.3 0.9 2.3 2.5 3.9 1.7 1.7 3.9 2.6 2.1 0.9 4.7 0.9z"/>
		<path id="&lt;Compound Path&gt;" class="s0" d="m174.6 160.2v-44.3h20.9q7.3 0 12.9 2.7 5.5 2.7 8.7 7.7 3.1 4.9 3.1 11.7 0 6.8-3.1 11.8-3.2 4.9-8.7 7.7-5.6 2.7-12.9 2.7zm12.6-10h7.7q3.9 0 6.7-1.5 2.8-1.4 4.4-4.2 1.6-2.7 1.6-6.5 0-3.8-1.6-6.5-1.6-2.7-4.4-4.1-2.8-1.5-6.7-1.5h-7.7z"/>
		<path id="&lt;Compound Path&gt;" class="s0" d="m247.2 161.1q-9.8 0-15.3-5.4-5.4-5.4-5.4-15.2v-24.6h12.5v24.2q0 5.7 2.2 8.1 2.2 2.5 6.1 2.5 3.9 0 6.1-2.5 2.2-2.4 2.2-8.1v-24.2h12.4v24.6q0 9.8-5.5 15.2-5.6 5.4-15.3 5.4z"/>
		<path id="&lt;Compound Path&gt;" class="s0" d="m298.5 161.1q-5.2 0-9.6-1.7-4.5-1.7-7.8-4.8-3.2-3-5.1-7.3-1.8-4.2-1.8-9.3 0-5 1.8-9.3 1.9-4.2 5.1-7.3 3.3-3 7.8-4.7 4.4-1.7 9.6-1.7 6.2 0 11 2.1 4.8 2.2 8.1 6.3l-8 7.2q-2.2-2.5-4.7-3.9-2.6-1.3-5.7-1.3-2.8 0-5 0.9-2.3 0.9-3.9 2.5-1.6 1.7-2.5 4.1-1 2.3-1 5.1 0 2.9 1 5.2 0.9 2.4 2.5 4 1.6 1.7 3.9 2.6 2.2 0.9 5 0.9 3.1 0 5.7-1.3 2.5-1.4 4.7-4l8 7.2q-3.3 4.2-8.1 6.3-4.8 2.2-11 2.2z"/>
		<path id="&lt;Compound Path&gt;" class="s0" d="m332.2 160.2v-34.4h-13.6v-9.9h39.6v9.9h-13.5v34.4z"/>
		<path id="&lt;Compound Path&gt;" class="s0" d="m375.5 115.9v44.3h-12.5v-44.3z"/>
		<path id="&lt;Compound Path&gt;" class="s0" d="m437.9 160.2v-44.3h10.3l24.3 29.5h-4.8v-29.5h12.2v44.3h-10.3l-24.4-29.5h4.9v29.5z"/>
		<g id="&lt;Group&gt;">
			<path id="&lt;Compound Path&gt;" class="s0" d="m121.6-114.1q-0.8 0-1.6-0.3-0.8-0.2-1.2-0.6l0.4-0.7q0.4 0.3 1.1 0.5 0.7 0.2 1.4 0.2 1 0 1.4-0.3 0.5-0.3 0.5-0.8 0-0.4-0.3-0.6-0.2-0.2-0.6-0.3-0.4-0.1-0.9-0.2-0.5-0.1-1-0.2-0.5-0.1-0.9-0.3-0.4-0.2-0.6-0.6-0.3-0.4-0.3-1 0-0.5 0.4-1 0.3-0.4 0.9-0.7 0.6-0.3 1.5-0.3 0.7 0 1.4 0.2 0.6 0.2 1.1 0.5l-0.4 0.8q-0.5-0.4-1-0.5-0.6-0.1-1.1-0.1-0.9 0-1.4 0.3-0.4 0.3-0.4 0.8 0 0.4 0.2 0.6 0.3 0.3 0.7 0.4 0.4 0.1 0.9 0.2 0.5 0.1 0.9 0.2 0.5 0.1 0.9 0.3 0.4 0.2 0.7 0.6 0.2 0.3 0.2 0.9 0 0.6-0.3 1-0.4 0.5-1 0.7-0.6 0.3-1.6 0.3z"/>
			<path id="&lt;Compound Path&gt;" class="s0" d="m126.4-114.1q-0.3 0-0.5-0.2-0.3-0.3-0.3-0.6 0-0.3 0.3-0.5 0.2-0.2 0.5-0.2 0.2 0 0.5 0.2 0.2 0.2 0.2 0.5 0 0.3-0.2 0.6-0.3 0.2-0.5 0.2z"/>
			<path id="&lt;Compound Path&gt;" class="s0" d="m131.2-114.1q-0.8 0-1.4-0.3-0.6-0.2-0.9-0.7-0.3-0.5-0.3-1.1 0-0.5 0.3-1 0.3-0.4 0.8-0.7 0.6-0.2 1.6-0.2h2.4v0.7h-2.3q-1.1 0-1.4 0.3-0.4 0.4-0.4 0.9 0 0.6 0.4 1 0.5 0.3 1.3 0.3 0.8 0 1.4-0.3 0.6-0.4 0.9-1.1l0.2 0.7q-0.3 0.6-1 1.1-0.6 0.4-1.6 0.4zm2.4-0.1v-1.5-0.3-2.6q0-0.9-0.5-1.3-0.5-0.5-1.5-0.5-0.7 0-1.3 0.2-0.6 0.2-1.1 0.6l-0.4-0.7q0.6-0.5 1.3-0.7 0.7-0.3 1.6-0.3 1.3 0 2.1 0.7 0.7 0.7 0.7 2.1v4.3z"/>
			<path id="&lt;Compound Path&gt;" class="s0" d="m137.2-114.1q-0.3 0-0.5-0.2-0.2-0.3-0.2-0.6 0-0.3 0.2-0.5 0.2-0.2 0.5-0.2 0.3 0 0.5 0.2 0.2 0.2 0.2 0.5 0 0.3-0.2 0.6-0.2 0.2-0.5 0.2z"/>
			<path id="&lt;Compound Path&gt;" class="s0" d="m139.9-114.2v-7h0.9v1.9l-0.1-0.3q0.3-0.8 1-1.2 0.7-0.5 1.7-0.5v1q0 0-0.1 0 0 0-0.1 0-1.1 0-1.7 0.6-0.7 0.7-0.7 1.9v3.6z"/>
			<path id="&lt;Compound Path&gt;" class="s0" d="m145.2-114.1q-0.3 0-0.5-0.2-0.2-0.3-0.2-0.6 0-0.3 0.2-0.5 0.2-0.2 0.5-0.2 0.3 0 0.5 0.2 0.2 0.2 0.2 0.5 0 0.3-0.2 0.6-0.2 0.2-0.5 0.2z"/>
			<path id="&lt;Compound Path&gt;" class="s0" d="m147.9-114.2v-9.9h1v9.9z"/>
		</g>
		<g id="&lt;Group&gt;">
			<g id="&lt;Group&gt;">
				<path id="&lt;Path&gt;" class="s0" d="m63.7-130.4l-3.1 5.3h10.4c1-1.8 1.6-4.5 1.6-7.1 0-3.3-0.9-6.3-2.5-9l-6.4 10.9z"/>
				<path id="&lt;Path&gt;" class="s0" d="m52.1-140.6h6.8l-5.1-8.8c-5.9 0.5-10.9 3.6-13.7 8.8h10.3z"/>
				<path id="&lt;Path&gt;" class="s0" d="m49.5-125.5l-3.3-5.7-5.2 9c3.1 4.5 8.3 7.5 14.2 7.5q0.2 0 0.4 0l-6.1-10.7z"/>
				<path id="&lt;Path&gt;" class="s0" d="m58.9-124.1h-7.1l5.3 9c5.9-0.5 11.1-4.2 13.8-9h-10.5z"/>
				<path id="&lt;Path&gt;" class="s0" d="m60-140.6l4.3 7.4 5.2-8.8c-3.2-4.5-8.4-7.5-14.3-7.5q-0.1 0-0.3 0l5.1 8.9z"/>
				<path id="&lt;Path&gt;" class="s0" d="m45.6-132.1l4.3-7.3h-10.3c-1.1 1.8-1.7 4.7-1.7 7.4 0 3.3 0.9 6.3 2.5 9l5.3-9.1z"/>
			</g>
		</g>
		<g id="&lt;Group&gt;">
			<g id="&lt;Group&gt;">
				<path id="&lt;Path&gt;" class="s0" d="m861.3-40l-3.1 5.3h10.3c1-1.8 1.6-4.5 1.6-7.1 0-3.3-0.9-6.3-2.5-9l-6.3 10.8z"/>
				<path id="&lt;Path&gt;" class="s0" d="m849.7-50.2h6.7l-5-8.8c-5.9 0.5-10.9 3.6-13.7 8.8h10.3z"/>
				<path id="&lt;Path&gt;" class="s0" d="m847.1-35.1l-3.3-5.8-5.2 9.1c3.1 4.4 8.3 7.4 14.2 7.4q0.2 0 0.4 0l-6.1-10.7z"/>
				<path id="&lt;Path&gt;" class="s0" d="m856.5-33.8h-7.1l5.2 9.1c6-0.5 11.1-4.2 13.8-9.1h-10.4z"/>
				<path id="&lt;Path&gt;" class="s0" d="m857.6-50.2l4.3 7.4 5.1-8.8c-3.1-4.5-8.3-7.4-14.2-7.4q-0.2 0-0.3 0l5 8.8z"/>
				<path id="&lt;Path&gt;" class="s0" d="m843.2-41.8l4.3-7.2h-10.3c-1.1 1.8-1.7 4.7-1.7 7.4 0 3.3 0.9 6.3 2.5 8.9l5.3-9.1z"/>
			</g>
		</g>
		<path id="&lt;Compound Path&gt;" class="s0" d="m584.4-105.4v-45.8h2.4v45.9h28.1v2.1h-28.5z"/>
		<path id="&lt;Compound Path&gt;" class="s0" d="m626.7-105.3h30.2v2.1h-32.5v-45.4l2.1-2.6h29.4v2.1h-29.2zm2.9-23.3h26.5v2.1h-26.5z"/>
		<path id="&lt;Compound Path&gt;" class="s0" d="m670.2-103.2v-48h2l35.2 45.3h-1.1v-45.3h2.3v46.7 1.3h-0.9-1l-35.3-45.3h1.2v45.3z"/>
		<path id="&lt;Compound Path&gt;" class="s0" d="m738.3-102.9q-5.3 0-10-1.9-4.7-1.9-7.1-4.8l1.2-1.6q2.3 2.6 6.6 4.4 4.3 1.8 9.3 1.8 5 0 8.2-1.3 3.2-1.4 4.8-3.7 1.5-2.3 1.5-5.1 0-3.3-1.6-5.3-1.7-2-4.4-3.2-2.7-1.1-5.9-1.9-3.2-0.7-6.4-1.6-3.3-0.9-6-2.2-2.7-1.3-4.3-3.7-1.7-2.4-1.7-6.1 0-3.3 1.8-6.1 1.7-2.8 5.3-4.6 3.7-1.7 9.4-1.7 3.9 0 7.7 1.2 3.8 1.2 6.5 3.2l-1.1 1.8q-2.9-2.1-6.4-3.1-3.5-1-6.7-1-4.8 0-8 1.4-3.2 1.4-4.7 3.7-1.5 2.3-1.5 5.2 0 3.3 1.7 5.3 1.6 2 4.3 3.2 2.7 1.1 6 1.9 3.2 0.7 6.4 1.6 3.2 0.9 5.9 2.2 2.8 1.4 4.4 3.7 1.6 2.3 1.6 6 0 3.2-1.8 6.1-1.7 2.8-5.5 4.5-3.7 1.7-9.5 1.7z"/>
		<path id="&lt;Compound Path&gt;" class="s0" d="m470.9-20.8v-48.1h16.7q6 0 10.3 1.9 4.3 2 6.5 5.5 2.3 3.5 2.3 8.5 0 5.1-2.3 8.6-2.2 3.6-6.5 5.5-4.3 1.9-10.3 1.9h-15.4l1.1-1.1v17.3zm2.3-17.3l-1-1h15.5q8.1 0 12.4-3.6 4.3-3.7 4.3-10.3 0-6.5-4.3-10.2-4.3-3.6-12.4-3.6h-15.5l1-1.1z"/>
		<path id="&lt;Compound Path&gt;" class="s0" d="m519.1-20.8v-48.1h16.7q6 0 10.3 1.9 4.3 2 6.5 5.5 2.3 3.5 2.3 8.5 0 5.1-2.3 8.6-2.2 3.6-6.5 5.5-4.3 1.9-10.3 1.9h-15.4l1.1-1.1v17.3zm2.3-17.3l-1-1h15.5q8.1 0 12.4-3.6 4.3-3.7 4.3-10.3 0-6.5-4.3-10.2-4.3-3.6-12.4-3.6h-15.5l1-1.1zm31.4 17.3l-12.5-17.5h2.7l12.6 17.5z"/>
		<path id="&lt;Compound Path&gt;" class="s0" d="m588.3-20.6q-5.3 0-9.8-1.8-4.5-1.8-7.9-5.1-3.4-3.3-5.2-7.7-1.9-4.4-1.9-9.7 0-5.2 1.9-9.6 1.8-4.4 5.2-7.7 3.4-3.3 7.9-5.1 4.5-1.9 9.9-1.9 5.3 0 9.8 1.9 4.5 1.8 7.9 5.1 3.3 3.3 5.2 7.7 1.9 4.4 1.9 9.6 0 5.3-1.9 9.7-1.9 4.4-5.2 7.7-3.4 3.3-7.9 5.1-4.5 1.8-9.9 1.8zm0-2.1q4.8 0 8.9-1.6 4.2-1.7 7.2-4.7 3.1-3 4.7-7 1.7-4.1 1.7-8.9 0-4.8-1.7-8.8-1.6-4-4.7-7-3-3-7.2-4.7-4.1-1.6-8.9-1.6-4.7 0-8.8 1.6-4.2 1.7-7.2 4.7-3.1 3-4.7 7.1-1.7 4-1.7 8.7 0 4.8 1.7 8.9 1.6 4 4.7 7 3 3 7.2 4.7 4.1 1.6 8.8 1.6z"/>
		<path id="&lt;Compound Path&gt;" class="s0" d="m852.8-17.4q-5.3 0-9.8-1.8-4.6-1.9-7.9-5.2-3.4-3.3-5.2-7.7-1.9-4.4-1.9-9.6 0-5.2 1.9-9.7 1.8-4.4 5.2-7.7 3.3-3.3 7.9-5.1 4.5-1.8 9.9-1.8 5.2 0 9.8 1.8 4.5 1.8 7.8 5.1 3.4 3.3 5.2 7.7 1.9 4.4 1.9 9.7 0 5.2-1.9 9.6-1.8 4.4-5.2 7.7-3.3 3.3-7.8 5.2-4.6 1.8-9.9 1.8zm0-2.2q4.8 0 8.9-1.6 4.1-1.7 7.2-4.7 3-3 4.7-7 1.7-4 1.7-8.8 0-4.8-1.7-8.8-1.7-4.1-4.7-7.1-3.1-3-7.2-4.6-4.1-1.7-8.9-1.7-4.8 0-8.9 1.7-4.1 1.6-7.1 4.6-3.1 3-4.8 7.1-1.7 4-1.7 8.8 0 4.8 1.7 8.8 1.7 4 4.8 7 3 3 7.1 4.7 4.1 1.6 8.9 1.6z"/>
		<g id="&lt;Group&gt;">
			<g id="&lt;Group&gt;">
				<g id="&lt;Group&gt;">
					<path id="&lt;Path&gt;" class="s0" d="m416.7 138.7l-3.1 5.2h10.3c1-1.8 1.5-4.5 1.5-7 0-3.2-0.9-6.2-2.5-8.8l-6.2 10.6z"/>
					<path id="&lt;Path&gt;" class="s0" d="m405.3 128.6h6.6l-5-8.7c-5.8 0.5-10.7 3.6-13.4 8.7h10.1z"/>
					<path id="&lt;Path&gt;" class="s0" d="m402.7 143.5l-3.2-5.6-5.2 8.9c3.1 4.4 8.2 7.3 14 7.3q0.2 0 0.4 0l-6-10.5z"/>
					<path id="&lt;Path&gt;" class="s0" d="m411.9 144.8h-6.9l5.1 9c5.9-0.5 11-4.1 13.7-9h-10.4z"/>
					<path id="&lt;Path&gt;" class="s0" d="m413.1 128.6l4.2 7.3 5.1-8.7c-3.1-4.4-8.2-7.3-14.1-7.3q-0.1 0-0.3 0l5 8.7z"/>
					<path id="&lt;Path&gt;" class="s0" d="m398.9 137l4.2-7.2h-10.1c-1.1 1.8-1.7 4.7-1.7 7.3 0 3.3 0.9 6.2 2.4 8.8l5.2-8.9z"/>
				</g>
			</g>
			<path id="&lt;Compound Path&gt;" class="s0" d="m408.3 161q-5.2 0-9.7-1.8-4.5-1.8-7.8-5-3.3-3.3-5.1-7.7-1.9-4.3-1.9-9.5 0-5.2 1.9-9.5 1.8-4.4 5.1-7.7 3.3-3.2 7.8-5 4.5-1.8 9.8-1.8 5.2 0 9.7 1.8 4.5 1.8 7.7 5 3.3 3.3 5.2 7.6 1.9 4.4 1.9 9.6 0 5.2-1.9 9.5-1.9 4.4-5.2 7.7-3.2 3.2-7.7 5-4.5 1.8-9.8 1.8zm0-2.1q4.8 0 8.8-1.6 4.1-1.7 7.1-4.6 3-3 4.7-7 1.7-4 1.7-8.7 0-4.7-1.7-8.7-1.7-4-4.7-7-3-2.9-7.1-4.6-4-1.6-8.8-1.6-4.7 0-8.7 1.6-4.1 1.7-7.1 4.6-3 3-4.7 7-1.7 4-1.7 8.7 0 4.7 1.7 8.7 1.7 4 4.7 7 3 2.9 7.1 4.6 4 1.6 8.7 1.6z"/>
		</g>
		<path id="&lt;Compound Path&gt;" class="s0" d="m625.9-20.8v-48.1h18.5q7.7 0 13.4 3.1 5.7 3.2 8.9 8.5 3.2 5.4 3.2 12.4 0 7-3.2 12.4-3.2 5.4-8.9 8.5-5.7 3.2-13.4 3.2zm2.3-2.2h16.1q7.1 0 12.3-2.8 5.3-2.8 8.1-7.7 2.9-5 2.9-11.4 0-6.3-2.9-11.3-2.8-4.9-8.1-7.7-5.2-2.9-12.3-2.9h-16.1z"/>
		<path id="&lt;Compound Path&gt;" class="s0" d="m701-20.6q-8.8 0-13.8-5.1-5-5.2-5-15.4v-27.8h2.3v27.7q0 9.4 4.3 13.9 4.3 4.6 12.2 4.6 7.9 0 12.2-4.6 4.4-4.5 4.4-13.9v-27.7h2.2v27.8q0 10.2-5 15.4-5.1 5.1-13.8 5.1z"/>
		<path id="&lt;Compound Path&gt;" class="s0" d="m756.9-20.6q-5.3 0-9.8-1.8-4.5-1.8-7.9-5.1-3.4-3.3-5.2-7.7-1.9-4.4-1.9-9.7 0-5.2 1.9-9.6 1.8-4.4 5.2-7.7 3.4-3.3 7.9-5.1 4.5-1.9 9.8-1.9 4.9 0 9.2 1.6 4.3 1.6 7.5 4.8l-1.5 1.5q-3.2-3.1-7-4.4-3.8-1.3-8.1-1.3-4.8 0-9 1.6-4.1 1.7-7.1 4.8-3.1 3-4.8 7-1.6 4-1.6 8.7 0 4.8 1.6 8.8 1.7 4 4.8 7 3 3 7.1 4.7 4.2 1.7 9 1.7 4.3 0 8.1-1.3 3.8-1.4 7-4.5l1.5 1.5q-3.2 3.2-7.5 4.8-4.3 1.6-9.2 1.6z"/>
		<path id="&lt;Compound Path&gt;" class="s0" d="m814.7-20.8v-43h1.8v43z"/>
		<path id="&lt;Compound Path&gt;" class="s0" d="m796.5-20.8v-69.6h1.8v69.6z"/>
		<path id="&lt;Compound Path&gt;" class="s0" d="m884.2-20.8v-43h1.7l31.6 40.5h-1.1v-40.5h2.1v43h-1.7l-31.6-40.6h1.1v40.6z"/>
		<g id="&lt;Group&gt;">
			<path id="&lt;Compound Path&gt;" class="s0" d="m833.7-72.7h-49.1v-1.8h49.1z"/>
			<path id="&lt;Compound Path&gt;" class="s0" d="m921.5-70.9h-49.1v-1.8h49.1z"/>
			<path id="&lt;Compound Path&gt;" class="s0" d="m873.7-82.7h-40.8v-1.8h40.8z"/>
			<path id="&lt;Compound Path&gt;" class="s0" d="m832.8-72.7v-11.8h1.4v11.8z"/>
			<path id="&lt;Compound Path&gt;" class="s0" d="m872.4-71.8v-11.8h1.3v11.8z"/>
		</g>
		<g id="&lt;Group&gt;">
			<path id="&lt;Compound Path&gt;" class="s0" d="m392.4 106.3v1.6h-29.4v-1.6z"/>
			<path id="&lt;Compound Path&gt;" class="s0" d="m479.9 107.9v1.6h-53.1v-1.6z"/>
			<path id="&lt;Compound Path&gt;" class="s0" d="m428 97.4v1.6h-36.4v-1.6z"/>
			<path id="&lt;Compound Path&gt;" class="s0" d="m391.6 107.9v-10.5h1.2v10.5z"/>
			<path id="&lt;Compound Path&gt;" class="s0" d="m426.8 108.7v-10.5h1.2v10.5z"/>
		</g>
		<path id="&lt;Path&gt;" class="s0" d="m672.7-146.8l-2.5-4.4 2.4 6.1"/>
		<g id="&lt;Group&gt;">
			<path id="&lt;Compound Path&gt;" class="s0" d="m442.5 105.7q-0.9 0-1.7-0.3-0.8-0.2-1.2-0.6l0.4-0.8q0.5 0.3 1.1 0.6 0.7 0.2 1.4 0.2 1 0 1.5-0.3 0.4-0.3 0.4-0.8 0-0.4-0.2-0.6-0.3-0.3-0.7-0.4-0.4-0.1-0.9-0.2-0.5-0.1-1-0.2-0.4-0.1-0.8-0.3-0.4-0.2-0.7-0.6-0.2-0.3-0.2-0.9 0-0.6 0.3-1.1 0.3-0.4 0.9-0.7 0.6-0.2 1.5-0.2 0.7 0 1.4 0.1 0.7 0.2 1.1 0.5l-0.4 0.8q-0.4-0.3-1-0.5-0.5-0.1-1.1-0.1-0.9 0-1.4 0.3-0.4 0.3-0.4 0.8 0 0.5 0.2 0.7 0.3 0.2 0.7 0.3 0.4 0.2 0.9 0.2 0.5 0.1 1 0.2 0.5 0.2 0.9 0.3 0.4 0.2 0.6 0.6 0.3 0.4 0.3 0.9 0 0.7-0.4 1.1-0.3 0.5-0.9 0.7-0.7 0.3-1.6 0.3z"/>
			<path id="&lt;Compound Path&gt;" class="s0" d="m447.2 105.7q-0.3 0-0.5-0.3-0.2-0.2-0.2-0.5 0-0.3 0.2-0.5 0.2-0.2 0.5-0.2 0.3 0 0.5 0.2 0.2 0.2 0.2 0.5 0 0.3-0.2 0.5-0.2 0.3-0.5 0.3z"/>
			<path id="&lt;Compound Path&gt;" class="s0" d="m452.1 105.7q-0.8 0-1.4-0.3-0.6-0.3-0.9-0.7-0.3-0.5-0.3-1.1 0-0.6 0.3-1 0.3-0.5 0.9-0.7 0.6-0.3 1.6-0.3h2.4v0.7h-2.4q-1 0-1.4 0.4-0.4 0.3-0.4 0.9 0 0.6 0.4 0.9 0.5 0.4 1.4 0.4 0.8 0 1.4-0.4 0.5-0.3 0.8-1l0.2 0.6q-0.3 0.7-0.9 1.1-0.7 0.5-1.7 0.5zm2.4-0.1v-1.6-0.2-2.6q0-0.9-0.5-1.4-0.5-0.5-1.5-0.5-0.7 0-1.3 0.2-0.6 0.3-1.1 0.6l-0.4-0.7q0.6-0.4 1.3-0.7 0.8-0.2 1.6-0.2 1.4 0 2.1 0.6 0.8 0.7 0.8 2.1v4.4z"/>
			<path id="&lt;Compound Path&gt;" class="s0" d="m458.1 105.7q-0.3 0-0.5-0.3-0.2-0.2-0.2-0.5 0-0.3 0.2-0.5 0.2-0.2 0.5-0.2 0.3 0 0.5 0.2 0.3 0.2 0.3 0.5 0 0.3-0.3 0.5-0.2 0.3-0.5 0.3z"/>
			<path id="&lt;Compound Path&gt;" class="s0" d="m460.9 105.6v-7.1h0.9v1.9l-0.1-0.3q0.3-0.8 1-1.2 0.7-0.4 1.7-0.4v0.9q0 0-0.1 0 0 0-0.1 0-1.1 0-1.7 0.7-0.6 0.6-0.6 1.9v3.6z"/>
			<path id="&lt;Compound Path&gt;" class="s0" d="m466.3 105.7q-0.3 0-0.6-0.3-0.2-0.2-0.2-0.5 0-0.3 0.2-0.5 0.3-0.2 0.6-0.2 0.2 0 0.5 0.2 0.2 0.2 0.2 0.5 0 0.3-0.2 0.5-0.3 0.3-0.5 0.3z"/>
			<path id="&lt;Compound Path&gt;" class="s0" d="m470 95.6v10h-1v-10z"/>
		</g>
	</g>
	<g id="DESIGNED BY FREEPIK">
	</g>
</svg>