<svg version="1.2" xmlns="http://www.w3.org/2000/svg" viewBox="0 0 100000 32000" width="100000" height="32000">
	<title>New Project</title>
	<style>
		.s0 { fill: #ffffff } 
	</style>
	<g id="Layer 1">
		<path id="&lt;Compound Path&gt;" class="s0" d="m0 11117v-8090.9h2772.4v7602.9h4662.6v2198.3h-5742.4z"/>
		<path id="&lt;Compound Path&gt;" class="s0" d="m11285.3 10670.9h5124.7v2156.4h-7855v-8145.1l1163.2-1656.1h6509.8v2156.3h-4942.7zm4914.7-3850.5v2058.3h-4550.6v-2058.3z"/>
		<path id="&lt;Compound Path&gt;" class="s0" d="m17964.1 12827.3v-9801.2h2282.4l5390.7 6524.7h-1078.2v-6524.7h2716.2v9118.7 682.5h-755-1527.2l-5404.6-6524.8h1078.2v6524.8z"/>
		<path id="&lt;Compound Path&gt;" class="s0" d="m32680 13023.3c-812.1 0-1589.2-100.5-2331.2-301.1-742.1-200.6-1342.1-455-1799.3-763.1l706-1596.6c0 0 559.6-249 753.1-154q447.7 219.8 970.2 385.5c574.1 182 1145.7 273 1715.3 273 392 0 702.2-32.5 931-98 228.6-65.2 396.6-158.6 504.1-280.1 107.2-121.1 161-265.9 161-434 0-214.6-102.9-385-308-511.1-205.5-125.9-473.9-233.1-805.1-322-331.4-88.6-690.9-172.5-1078.1-252-387.5-79.2-782-184.2-1183.2-315-401.4-130.6-765.4-303.3-1092.1-518.1-326.9-214.7-590.6-494.7-791.1-840.1-200.9-345.3-301-779.3-301-1302.1 0-578.7 158.6-1106.2 476-1582.2 317.2-476.1 798.1-858.7 1442.1-1148.2 644.2-289.2 1446.8-434.1 2408.3-434.1 644.2 0 1276.5 72.5 1897.2 217.1 620.8 144.8 1169.3 361.8 1645.2 651l-623.8 1518.2c0 0-570.7 337.5-746.9 258.3q-430.5-193.4-855.4-306.3c-457.6-121.1-901-182-1330.2-182-382.9 0-690.9 42-924.2 126.1-233.4 83.9-401.5 191.4-504 322-102.8 130.8-154 270.9-154 420 0 224 102.6 399 308 525.1 205.2 125.9 471.3 228.8 798.1 308.1 326.6 79.3 688.3 160.9 1085.1 245 396.7 84 791.2 189 1183.2 315 392 126 753.7 294 1085.1 504 331.2 210.1 599.7 485.5 805.1 826.2 205.2 340.7 308.1 767.9 308.1 1281.1 0 569.5-161.1 1094.5-483.1 1575.2-322 480.9-805.1 865.9-1449.1 1155.1-644.2 289.2-1451.6 434.1-2422.4 434.1z"/>
		<path id="&lt;Compound Path&gt;" class="s0" d="m0 29629.3v-9801.2h4466.6c896.2 0 1670.8 144.8 2324.2 434 653.3 289.5 1155.2 707.2 1505.2 1253.2 350 546.1 525.1 1187.9 525.1 1925.2 0 756.1-175.1 1402.6-525.1 1939.3-350 536.8-851.9 952.1-1505.2 1246.1-653.4 294.1-1428 441.1-2324.2 441.1h-2940.4l1246.2-1218.2v3780.5zm2772.5-3458.5l-1246.2-1302.1h2772.3c578.6 0 1012.8-123.6 1302.1-371.1 289.3-247.2 434.1-599.6 434.1-1057.1 0-438.7-144.8-786.2-434.1-1043.2-289.3-256.5-723.5-385-1302.1-385h-2772.3l1246.2-1274.1z"/>
		<path id="&lt;Compound Path&gt;" class="s0" d="m10179.2 29629.3v-9801.2h4466.6c896.2 0 1670.8 144.8 2324.3 434 653.3 289.5 1155.1 707.2 1505.1 1253.2 350.1 546.1 525.1 1187.9 525.1 1925.2 0 756.1-175 1400.2-525.1 1932.2-350 532.2-851.8 940.6-1505.1 1225.1-653.5 285-1428.1 427.2-2324.3 427.2h-2940.3l1246.2-1176.2v3780.5zm2772.4-3458.5l-1246.2-1288.2h2772.3c578.7 0 1012.8-125.9 1302.2-377.9 289.3-252.1 434.1-606.7 434.1-1064.2 0-438.7-144.8-786.2-434.1-1043.2-289.4-256.5-723.5-385-1302.2-385h-2772.3l1246.2-1274.1zm3276.3 3458.4l-2436.2-3570.4h2954.3l2450.3 3570.4z"/>
		<path id="&lt;Compound Path&gt;" class="s0" d="m25469.1 29825.3c-774.9 0-1496-126-2163.3-378-667.4-252-1243.9-609.2-1729.1-1071.2-485.4-462-866-1003.2-1141.2-1624.2-275.4-620.6-413-1299.8-413-2037.2 0-728.1 137.6-1400.1 413-2016.3 275.2-616.1 655.8-1155.1 1141.2-1617.1 485.2-462.1 1059.3-819.2 1722.1-1071.2 662.8-252 1386.3-378.1 2170.3-378.1 784.2 0 1507.4 126.1 2170.3 378.1 662.7 252 1236.7 607 1722.1 1064.2 485.3 457.4 865.8 994.1 1141.2 1610.2 275.3 616 413.1 1293 413.1 2030.2 0 746.9-135.5 1430.6-406.1 2051.2-270.9 620.9-651 1159.9-1141 1617.2-490.1 457.5-1066.6 812.2-1729.3 1064.2-662.9 252-1386.1 378-2170.3 378zm0-2296.3c373.3 0 721.1-65.2 1043.2-196.1 322-130.5 602-319.5 840.1-567 238-247.2 424.7-541.2 560-882.1 135.3-340.6 203.1-725.6 203.1-1155.1 0-429.2-67.8-814.3-203.1-1155.2-135.3-340.6-322-634.7-560-882-238.1-247.3-518.1-436.4-840.1-567.1-322.1-130.7-669.9-196.1-1043.2-196.1-373.4 0-721 65.4-1043.1 196.1-322.1 130.7-604.4 319.8-847.1 567.1-242.9 247.3-429.5 541.4-560.1 882-130.8 340.9-195.9 726-195.9 1155.2 0 429.5 65.1 814.5 195.9 1155.1 130.6 340.9 317.2 634.9 560.1 882.1 242.7 247.5 525 436.5 847.1 567 322.1 130.9 669.7 196.1 1043.1 196.1z"/>
		<path id="&lt;Compound Path&gt;" class="s0" d="m32385.9 29629.3v-9801.2h4634.6c1073.2 0 2020.8 200.9 2842.3 602 821.2 401.5 1463.1 966.2 1925.2 1694.3 462.2 728 693 1591.6 693 2590.3 0 1008-230.8 1878.6-693 2611.3-462.1 732.9-1104 1299.9-1925.2 1701.2-821.5 401.5-1769.1 602.1-2842.3 602.1zm2772.4-2212.3h1722.2c569.2 0 1061.8-107.2 1477.2-322 415.1-214.7 739.7-525 973-931.2 233.2-406.1 350-884.2 350-1435.1 0-569.3-116.8-1052.3-350-1449.1-233.3-396.7-557.9-702.3-973-917.3-415.4-214.5-908-322-1477.2-322h-1722.2z"/>
		<path id="&lt;Compound Path&gt;" class="s0" d="m48459.9 29825.3c-1447.2 0-2574.2-396.6-3381.5-1190.1-807.5-793.3-1211.2-1913.5-1211.2-3360.4v-5446.7h2772.5v5362.6c0 830.9 163 1428.2 490 1792.2 326.5 364.1 779.1 546.1 1358.1 546.1 578.6 0 1029-182 1351.2-546.1 321.9-364 482.9-961.3 482.9-1792.2v-5362.6h2744.3v5446.7c0 1446.9-408.3 2567.1-1225.1 3360.4-816.9 793.5-1943.9 1190.1-3381.2 1190.1z"/>
		<path id="&lt;Compound Path&gt;" class="s0" d="m59829.4 29825.3c-775 0-1489-123.8-2142.4-371.1-653.3-247.2-1222.9-597.2-1708.1-1050.1-485.4-452.6-863.6-991.7-1134-1617.1-271-625.3-406.1-1311.5-406.1-2058.3 0-746.7 135.1-1432.7 406.1-2058.3 270.4-625.3 648.6-1164.3 1134-1617.2 485.2-452.6 1054.8-802.6 1708.1-1050.1 653.4-247.2 1367.4-371.1 2142.4-371.1 905.2 0 1715.2 156.4 2429.2 469.1 714.1 312.9 1309.1 772.5 1785.3 1379.2l-1764.2 1596.2c-317.5-373.3-667.5-658.1-1050.1-854.2-382.9-195.9-802.9-294-1260.2-294-401.4 0-770.1 65.4-1106.2 196.1-336.1 130.7-622.9 319.8-861.1 567.1-237.9 247.3-424.7 543.8-560.1 889-135.4 345.5-202.9 728.1-202.9 1148.2 0 420 67.5 802.9 202.9 1148.1 135.4 345.4 322.2 641.9 560.1 889.1 238.2 247.5 525 436.5 861.1 567 336.1 130.9 704.8 196.1 1106.2 196.1 457.3 0 877.3-98 1260.2-294 382.6-196 732.6-485.2 1050.1-868.1l1764.2 1596.1c-476.2 607-1071.2 1069-1785.3 1386.2-714 317.3-1524 476.1-2429.2 476.1z"/>
		<path id="&lt;Compound Path&gt;" class="s0" d="m67278.2 29629.3v-7602.9h-3010.4v-2198.3h8779v2198.3h-2996.4v7602.9z"/>
		<path id="&lt;Compound Path&gt;" class="s0" d="m76869.3 19828.1v9801.2h-2772.4v-9801.2z"/>
		<path id="&lt;Compound Path&gt;" class="s0" d="m90688.9 29629.3v-9801.2h2282.4l5390.6 6524.7h-1078.3v-6524.7h2716.4v9801.2h-2282.1l-5404.9-6524.8h1078.3v6524.8z"/>
		<path id="&lt;Path&gt;" class="s0" d="m85993.4 24874.9l-679 1156.8h2269.7c221.4-399.5 345.9-991.3 345.9-1555.5 0-719.6-200.9-1379.8-549.7-1952.5l-1379.3 2361.6z"/>
		<path id="&lt;Path&gt;" class="s0" d="m83464.2 22636.2h1473.8l-1106.4-1916.3c-1282.1 106-2382.5 784.5-2982.3 1916.3h2251.3z"/>
		<path id="&lt;Path&gt;" class="s0" d="m82902.5 25946l-723.5-1258.9-1138.1 1971.4c683.4 981.7 1819.4 1624.9 3106.3 1624.9 27.2 0 54-1.4 81-2.1l-1339.6-2327.3z"/>
		<path id="&lt;Path&gt;" class="s0" d="m84944.1 26234.7h-1540.4l1138.8 1978.4c1306.8-108.4 2425.2-913.2 3016.4-1978.4h-2286.2z"/>
		<path id="&lt;Path&gt;" class="s0" d="m85193.9 22636.2l932.6 1628.9 1125-1928.1c-683.6-980.2-1818.6-1620.9-3104.3-1620.9-26.8 0-53.2-3.7-79.8-3.1l1113.3 1923.2z"/>
		<path id="&lt;Path&gt;" class="s0" d="m82054 24491.5l925.8-1589h-2241.3c-239.7 399.5-374.1 1031.6-374.1 1620.1 0 718.1 200 1378.2 547.4 1950.2l1146.2-1979.7z"/>
		<path id="&lt;Compound Path&gt;" class="s0" d="m84139.7 29812.9c-770.8 0-1486-132.6-2146.9-397.9-660.4-265-1236-638.2-1726.5-1118.5-490.5-480.3-870.6-1043.4-1140.8-1688.8-270.2-645.8-405.6-1348.9-405.6-2109.5 0-760.3 135.4-1463.7 405.6-2109.2 270.2-645.8 650.3-1208.8 1140.8-1689.1 490.5-480.4 1066.1-853.2 1726.5-1118.5 660.9-264.9 1381.4-397.9 2161.9-397.9 770.8 0 1486.4 133 2146.8 397.9 660.8 265.3 1233.7 638.1 1719.2 1118.5 485.3 480.3 865.8 1041.3 1141.2 1681.5 275.1 640.5 412.6 1346.4 412.6 2116.8 0 760.6-137.5 1463.7-412.6 2109.5-275.4 645.4-655.9 1208.5-1141.2 1688.8-485.5 480.3-1058.4 853.5-1719.2 1118.5-660.4 265.3-1380.9 397.9-2161.8 397.9zm0-465.3c700.6 0 1351.3-120.1 1951.7-360.3 600.7-240.5 1123.7-580.5 1569.1-1021 445.1-440.2 790.3-953.4 1035.7-1538.8 245.4-585.7 367.9-1228.7 367.9-1929.3 0-700.3-122.5-1343.6-367.9-1929-245.4-585.8-590.6-1098.6-1035.7-1539.1-445.4-440.2-968.4-780.6-1569.1-1020.7-600.4-240.2-1251.1-360.3-1951.7-360.3-690.5 0-1335.9 120.1-1936.7 360.3-600.4 240.1-1123.7 580.5-1568.8 1020.7-445.4 440.5-790.6 956.1-1036 1546.4q-367.6 886-367.6 1921.7c0 700.6 122.5 1343.6 367.6 1929.3 245.4 585.4 590.6 1098.6 1036 1538.8 445.1 440.5 968.4 780.5 1568.8 1021 600.8 240.2 1246.2 360.3 1936.7 360.3z"/>
		<path id="&lt;Compound Path&gt;" class="s0" d="m80615 17703.2v350.4h-6518.1v-350.4z"/>
		<path id="&lt;Compound Path&gt;" class="s0" d="m100000 18053.6v350.4h-11772v-350.4z"/>
		<path id="&lt;Compound Path&gt;" class="s0" d="m88496.5 15732v350.4h-8054v-350.4z"/>
		<path id="&lt;Compound Path&gt;" class="s0" d="m80439.8 18053.6v-2321.7h268.5v2321.7z"/>
		<path id="&lt;Compound Path&gt;" class="s0" d="m88228 18228.8v-2321.6h268.5v2321.6z"/>
		<path id="&lt;Compound Path&gt;" class="s0" d="m91704.3 17556.1c-129 0-251-18.3-366-55.1-115.2-36.7-205.4-82.8-270.9-138.3l95.2-166.7c63.5 47.6 144.9 88.8 244.2 123.5 99.1 34.7 203.3 52.1 312.4 52.1 148.9 0 256-23.3 321.5-70 65.4-46.5 98.2-108.6 98.2-186 0-57.5-18.4-102.7-55-135.4-36.9-32.8-84.9-57.5-144.4-74.4-59.5-16.8-126.1-31.3-199.4-43.2-73.5-11.9-146.3-25.7-218.9-41.7-72.4-15.8-138.2-39.1-197.9-69.9-59.5-30.8-107.5-72.9-144.2-126.5-36.8-53.6-55.1-125-55.1-214.3 0-85.2 23.8-161.7 71.4-229.2 47.6-67.4 117.5-120.5 209.8-159.2 92.2-38.7 204.9-58 337.9-58 101.2 0 202.3 13.3 303.5 40.1 101.2 26.8 184.5 62.1 250 105.7l-92.2 169.7c-69.5-47.7-143.9-81.9-223.2-102.7-79.5-20.9-158.8-31.3-238.1-31.3-141 0-244.7 24.4-311.1 72.9q-99.7 73-99.7 186.1c0 59.5 18.3 106.1 55.1 139.8q55 50.7 145.7 78.9c60.7 18.9 127.1 34.3 199.5 46.2 72.4 11.9 144.9 26.3 217.3 43.1 72.4 16.9 138.8 39.7 199.4 68.4 60.5 28.8 109.1 69.5 145.9 122.1 36.7 52.6 55 121.5 55 206.9 0 91.2-25.2 170.1-75.9 236.6-50.7 66.5-124 118-220.2 154.7-96.3 36.8-212.9 55.1-349.8 55.1z"/>
		<path id="&lt;Compound Path&gt;" class="s0" d="m92757.9 17556.1c-43.6 0-80.8-15.9-111.6-47.6q-46-47.6-46-116.1c0-47.7 15.3-86.3 46-116.1 30.8-29.8 68-44.6 111.6-44.6 43.7 0 80.8 14.8 111.7 44.6 30.7 29.8 46.1 68.4 46.1 116.1q0 68.5-46.1 116.1c-30.9 31.7-68 47.6-111.7 47.6z"/>
		<path id="&lt;Compound Path&gt;" class="s0" d="m93838.3 17556.1c-117.1 0-218.7-19.4-305-58.1-86.3-38.7-152.3-92.2-198-160.7-45.6-68.4-68.3-147.3-68.3-236.6 0-81.4 19.2-155.2 58-221.7 38.7-66.5 102.1-120.1 190.4-160.8 88.3-40.6 206.9-60.9 355.7-60.9h538.7v157.7h-532.7c-150.9 0-255.5 26.8-314.1 80.3-58.5 53.6-87.7 120.1-87.7 199.5q0 133.9 104.2 214.2c69.3 53.7 166.6 80.4 291.6 80.4 119.1 0 221.8-27.2 308.1-81.8 86.2-54.6 149.2-133.4 188.9-236.6l47.7 145.8q-59.6 154.8-206.8 247c-98.3 61.6-221.8 92.3-370.7 92.3zm538.8-14.9v-345.2l-9-56.6v-577.4c0-132.9-37.2-235.1-111.5-306.5-74.5-71.5-185.1-107.2-331.9-107.2-101.2 0-197.5 16.9-288.7 50.6-91.2 33.7-168.6 78.4-232.1 133.9l-95.3-157.7c79.3-67.4 174.6-119.6 285.7-156.3q166.7-55 351.3-55 303.5 0 468.8 150.3c110 100.2 165.1 252.5 165.1 456.8v970.3z"/>
		<path id="&lt;Compound Path&gt;" class="s0" d="m95174.7 17556.1c-43.6 0-80.9-15.9-111.6-47.6q-46.1-47.6-46.1-116.1c0-47.7 15.4-86.3 46.1-116.1 30.7-29.8 68-44.6 111.6-44.6 43.7 0 80.8 14.8 111.6 44.6 30.8 29.8 46.1 68.4 46.1 116.1q0 68.5-46.1 116.1c-30.8 31.7-67.9 47.6-111.6 47.6z"/>
		<path id="&lt;Compound Path&gt;" class="s0" d="m95784.9 17541.2v-1562.5h202.3v425.6l-20.7-74.4c43.6-119.1 116.9-209.9 220.2-272.4 103.1-62.5 231.1-93.7 383.9-93.7v205.3c-8 0-15.9-0.4-23.8-1.4-8-1-15.9-1.6-23.8-1.6-164.7 0-293.7 50.2-387 150.3-93.3 100.2-139.8 242.6-139.8 427.2v797.6z"/>
		<path id="&lt;Compound Path&gt;" class="s0" d="m96969.4 17556.1c-43.6 0-80.8-15.9-111.6-47.6q-46.1-47.6-46.1-116.1c0-47.7 15.4-86.3 46.1-116.1 30.8-29.8 68-44.6 111.6-44.6 43.7 0 80.8 14.8 111.7 44.6 30.7 29.8 46.1 68.4 46.1 116.1q0 68.5-46.1 116.1c-30.9 31.7-68 47.6-111.7 47.6z"/>
		<path id="&lt;Compound Path&gt;" class="s0" d="m97791 15332.8v2208.4h-211.4v-2208.4z"/>
	</g>
</svg>